<?xml version="1.0" encoding="utf-8"?>
<!-- Generator: Adobe Illustrator 18.1.1, SVG Export Plug-In . SVG Version: 6.00 Build 0)  -->
<svg version="1.1" id="レイヤー_1" xmlns="http://www.w3.org/2000/svg" xmlns:xlink="http://www.w3.org/1999/xlink" x="0px"
	 y="0px" viewBox="0 0 500 178.6" enable-background="new 0 0 500 178.6" xml:space="preserve">
<path id="Fill-1_5_" fill="#072C33" d="M0,178.6h500V0H0V178.6z"/>
<path fill="#E1E0E0" d="M171.5,161.4c0,0.7-0.6,1.3-1.3,1.3h-0.3c-0.7,0-1.3-0.6-1.3-1.3V67.7c0-0.7,0.6-1.3,1.3-1.3h0.3
	c0.7,0,1.3,0.6,1.3,1.3V161.4z M150.6,34.8c0-0.7-0.6-1.3-1.3-1.3h-9.3c-0.7,0-1.3,0.6-1.3,1.3v87c0,0.7,0.6,1.3,1.3,1.3h9.3
	c0.7,0,1.3-0.6,1.3-1.3V34.8z M354.3,34.8c0-0.7-0.6-1.3-1.3-1.3h-9.3c-0.7,0-1.3,0.6-1.3,1.3v87c0,0.7,0.6,1.3,1.3,1.3h9.3
	c0.7,0,1.3-0.6,1.3-1.3V34.8z M327.8,34.8c0-0.7-0.6-1.3-1.3-1.3h-9.3c-0.7,0-1.3,0.6-1.3,1.3v87c0,0.7,0.6,1.3,1.3,1.3h9.3
	c0.7,0,1.3-0.6,1.3-1.3V34.8z M202.3,66.9c-16,3.1-26.5,18.1-23.5,33.5c3,15.4,18.4,25.3,34.4,22.2c16-3.1,26.5-18.1,23.5-33.5
	C233.7,73.7,218.3,63.8,202.3,66.9z M266.6,66.9c-16,3.1-26.5,18.1-23.5,33.5c3,15.4,18.4,25.3,34.3,22.2
	c16-3.1,26.5-18.1,23.5-33.5C297.9,73.7,282.6,63.8,266.6,66.9z M415.7,66.9c-16,3.1-26.5,18.1-23.5,33.5
	c3,15.4,18.4,25.3,34.4,22.2c16-3.1,26.5-18.1,23.5-33.5C447,73.7,431.6,63.8,415.7,66.9z M49.6,123.1c0.7,0,1.7-0.4,2.2-1
	l78.6-87.7c0.5-0.5,0.3-1-0.5-1h-1.4c-0.7,0-1.7,0.4-2.2,1l-78.5,87.7c-0.5,0.5-0.3,1,0.4,1H49.6z M366,34.8c0-0.7-0.6-1.3-1.3-1.3
	h-0.3c-0.7,0-1.3,0.6-1.3,1.3v87c0,0.7,0.6,1.3,1.3,1.3h0.3c0.7,0,1.3-0.6,1.3-1.3V34.8z M380.4,63.1c-2.3,0-4.2,1.9-4.2,4.2
	c0,2.3,1.9,4.2,4.2,4.2c2.3,0,4.2-1.9,4.2-4.2C384.7,64.9,382.8,63.1,380.4,63.1z M380.4,87c-2.3,0-4.2,1.9-4.2,4.2
	c0,2.3,1.9,4.2,4.2,4.2c2.3,0,4.2-1.9,4.2-4.2C384.7,88.9,382.8,87,380.4,87z M431.9,47.3V34.4h4.9v-1.7H425v1.7h4.9v12.9H431.9z
	 M438.8,47.3h1.9V34.2l4.6,13.1h1.9l4.9-13.2v13.2h2V32.7h-3.3l-4.2,12.1l-4.2-12.1h-3.5V47.3z M121.9,95L121.9,95
	c-1.5,1.3-2.6,1.9-5.2,1.5c-2.7-0.5-5-4.3-8.4-4.9c-2.6-0.5-7.5,3.3-10.3,5.6c-1.2,0.9,0.2,1.8,1.4,0.7v0c1.3-1,2.5-1.4,4.7-1.1
	c2.7,0.5,5,4.3,8.4,5c2.5,0.4,7.2-3.1,9.7-5.2C123.6,95.5,123.1,93.9,121.9,95z"/>
</svg>
