<?xml version="1.0" encoding="utf-8"?>
<!-- Generator: Adobe Illustrator 18.1.1, SVG Export Plug-In . SVG Version: 6.00 Build 0)  -->
<svg version="1.1" id="レイヤー_1" xmlns="http://www.w3.org/2000/svg" xmlns:xlink="http://www.w3.org/1999/xlink" x="0px"
	 y="0px" viewBox="0 0 78.4 28" enable-background="new 0 0 78.4 28" xml:space="preserve">
<g id="Market-Views_5_">
	<g id="booth_logo_5_">
		<path id="Fill-1_5_" fill="#FC4D50" d="M0,28h78.4V0H0V28z"/>
		<path id="Combined-Shape_5_" fill="#FFFFFF" d="M13.6,9.8L13.3,13h1.6c0.6,0,1.1-0.1,1.4-0.4c0.3-0.2,0.5-0.7,0.5-1.3
			c0.1-0.6,0-1-0.3-1.2c-0.3-0.2-0.7-0.4-1.2-0.4H13.6z M13.1,14.8l-0.4,3.4h1.9c0.3,0,0.5,0,0.8,0c0.2,0,0.4-0.1,0.7-0.1
			c0.2-0.1,0.4-0.2,0.6-0.3c0.2-0.1,0.3-0.3,0.4-0.5c0.1-0.2,0.2-0.5,0.2-0.8c0-0.3,0-0.6-0.1-0.8c-0.1-0.2-0.2-0.4-0.3-0.5
			c-0.1-0.1-0.3-0.2-0.6-0.3c-0.2-0.1-0.5-0.1-0.6-0.1c-0.2,0-0.4,0-0.7,0H13.1z M15.8,7.9c1.2,0,2.1,0.3,2.7,0.8
			c0.6,0.5,0.8,1.4,0.7,2.6c-0.1,0.5-0.2,0.9-0.4,1.4c-0.2,0.4-0.5,0.8-0.9,1c0.5,0.1,0.8,0.3,1.1,0.6c0.3,0.3,0.5,0.7,0.6,1.1
			c0.1,0.4,0.1,0.9,0.1,1.3c-0.1,1.2-0.6,2-1.4,2.6c-0.8,0.6-1.8,0.9-3,0.9h-5.1l1.3-12.4H15.8z M54.5,13h4l0.5-5.1h2.4l-1.3,12.4
			h-2.4l0.6-5.3h-4l-0.6,5.3h-2.4l1.3-12.4h2.4L54.5,13z M48.8,9.9l-1.1,10.3h-2.4l1.1-10.3h-2.5l0.2-2.1h7.4l-0.2,2.1H48.8z
			 M41.3,13.9c0.1-0.7,0-1.3-0.2-1.9c-0.2-0.6-0.5-1.1-1-1.5c-0.5-0.4-1-0.6-1.7-0.6c-0.7,0-1.3,0.2-1.8,0.6c-0.5,0.4-1,0.9-1.3,1.5
			c-0.3,0.6-0.5,1.2-0.5,1.9c0,0.4,0,0.8,0,1.1c0,0.4,0.1,0.8,0.2,1.1c0.1,0.4,0.3,0.7,0.5,1c0.2,0.3,0.5,0.5,0.9,0.7
			c0.4,0.2,0.8,0.3,1.2,0.3c0.6,0,1.1-0.1,1.5-0.4c0.5-0.3,0.8-0.6,1.1-1c0.3-0.4,0.5-0.9,0.7-1.3C41.1,14.9,41.2,14.4,41.3,13.9
			L41.3,13.9z M43.5,14c-0.1,0.9-0.3,1.7-0.6,2.5c-0.3,0.8-0.8,1.5-1.3,2c-0.5,0.6-1.1,1-1.9,1.4c-0.7,0.3-1.5,0.5-2.3,0.5
			c-1.1,0-2-0.3-2.8-0.9c-0.8-0.6-1.4-1.3-1.7-2.3c-0.4-1-0.5-2-0.4-3.2c0.1-1.2,0.4-2.3,1-3.2c0.5-1,1.3-1.7,2.1-2.3
			c0.9-0.6,1.9-0.8,3-0.8c1.1,0,2,0.3,2.8,0.8c0.8,0.6,1.4,1.3,1.7,2.3C43.5,11.7,43.6,12.8,43.5,14L43.5,14z M29.3,13.9
			c0.1-0.7,0-1.3-0.2-1.9c-0.2-0.6-0.5-1.1-1-1.5c-0.5-0.4-1-0.6-1.7-0.6c-0.7,0-1.3,0.2-1.8,0.6c-0.5,0.4-1,0.9-1.3,1.5
			c-0.3,0.6-0.5,1.2-0.5,1.9c0,0.4,0,0.8,0,1.1c0,0.4,0.1,0.8,0.2,1.1c0.1,0.4,0.3,0.7,0.5,1c0.2,0.3,0.5,0.5,0.9,0.7
			c0.4,0.2,0.8,0.3,1.2,0.3c0.6,0,1.1-0.1,1.6-0.4c0.5-0.3,0.8-0.6,1.1-1c0.3-0.4,0.5-0.9,0.7-1.3C29.2,14.9,29.3,14.4,29.3,13.9
			L29.3,13.9z M31.5,14c-0.1,0.9-0.3,1.7-0.6,2.5c-0.3,0.8-0.8,1.5-1.3,2c-0.5,0.6-1.1,1-1.9,1.4c-0.7,0.3-1.5,0.5-2.3,0.5
			c-1.1,0-2-0.3-2.8-0.9c-0.8-0.6-1.4-1.3-1.7-2.3c-0.4-1-0.5-2-0.4-3.2c0.1-1.2,0.4-2.3,1-3.2c0.5-1,1.3-1.7,2.1-2.3
			c0.9-0.6,1.9-0.8,3-0.8c1.1,0,2,0.3,2.8,0.8c0.8,0.6,1.4,1.3,1.7,2.3C31.5,11.7,31.6,12.8,31.5,14z M69.4,15.7v-0.6L68,13h-0.5
			l-0.8,1.8L66,13.2l-0.4,0l-1.3,3v-2.8h-0.9v0.3h-0.7v0.9h0.7V17c0,0.2,0.2,0.4,0.4,0.4h0.4v2.8h0.9v-1.3c0-0.7,0.6-1.3,1.4-1.3h0
			h0h0c1.2,0,2.2,0.9,2.2,2.1v0.5h0.6v-2.5h0.7v-1.4L69.4,15.7z"/>
	</g>
</g>
</svg>
