<?xml version="1.0" encoding="UTF-8"?>
<svg width="152px" height="19px" viewBox="0 0 152 19" version="1.1" xmlns="http://www.w3.org/2000/svg" xmlns:xlink="http://www.w3.org/1999/xlink">
    <!-- Generator: Sketch 46.2 (44496) - http://www.bohemiancoding.com/sketch -->
    <title>logo</title>
    <desc>Created with Sketch.</desc>
    <defs></defs>
    <g id="Page-1" stroke="none" stroke-width="1" fill="none" fill-rule="evenodd">
        <g id="Custom-Preset" transform="translate(-24.000000, -24.000000)" fill-rule="nonzero" fill="#D0021B">
            <path d="M30.6782492,35.3435592 C32.9635817,35.3435592 34.3347812,34.7950794 35.2996993,33.7978435 C36.1884397,32.9003311 36.6962913,31.5540625 36.6962913,30.182863 C36.6962913,28.8116636 36.1884397,27.465395 35.2996993,26.5678826 C34.3093886,25.5457158 32.9635817,24.997236 30.6782492,24.997236 L24,24.997236 L24,42.4488655 L27.4279987,42.4488655 L27.4279987,35.3435592 L30.6782492,35.3435592 Z M27.4279987,32.3518513 L27.4279987,27.9889439 L30.5258938,27.9889439 C31.6939526,27.9889439 32.277982,28.2631838 32.6842633,28.6870091 C33.065152,29.0859035 33.2682927,29.6094524 33.2682927,30.182863 C33.2682927,30.7562737 33.065152,31.2548917 32.6842633,31.6537861 C32.277982,32.0776114 31.6939526,32.3518513 30.5258938,32.3518513 L27.4279987,32.3518513 Z M47.1883654,38.2106126 C46.5535509,39.108125 45.4616698,39.7064666 44.2174333,39.7064666 C42.3637747,39.7064666 40.9671827,38.3103362 40.9671827,36.4155879 C40.9671827,34.6704249 42.2114192,33.0997783 44.1412555,33.0997783 C45.4108847,33.0997783 46.5027657,33.6981199 47.1883654,34.5956322 L47.1883654,38.2106126 Z M50.4894012,30.3573793 L47.3153284,30.3573793 L47.3153284,31.3296844 C46.3504102,30.5568265 45.1061737,30.1080703 43.7095816,30.1080703 C40.3577607,30.1080703 37.6661469,32.8504693 37.6661469,36.4155879 C37.6661469,38.0610272 38.2755689,39.5568812 39.2404871,40.6538408 C40.3323681,41.9003857 42.0590637,42.6981745 43.8873297,42.6981745 C45.1315662,42.6981745 46.2996251,42.324211 47.3153284,41.4765605 L47.3153284,42.4488655 L50.4894012,42.4488655 L50.4894012,30.3573793 Z M62.7847013,35.4183519 L65.8825964,42.4488655 L68.1679289,42.4488655 L73.3480157,30.3573793 L70.0215874,30.3573793 L66.9998701,37.4128239 L63.9273676,30.3573793 L61.6420351,30.3573793 L58.54414,37.4128239 L55.5478153,30.3573793 L52.2213869,30.3573793 L57.4014738,42.4488655 L59.6868063,42.4488655 L62.7847013,35.4183519 Z M74.0639455,36.4155879 C74.0639455,39.9059138 76.8825222,42.6981745 80.6152318,42.6981745 C84.3479415,42.6981745 87.1665182,39.9059138 87.1665182,36.4155879 C87.1665182,32.925262 84.3479415,30.1080703 80.6152318,30.1080703 C76.8825222,30.1080703 74.0639455,32.925262 74.0639455,36.4155879 Z M77.3649813,36.4155879 C77.3649813,34.5956322 78.6853956,33.0997783 80.6152318,33.0997783 C82.5450681,33.0997783 83.8654824,34.5956322 83.8654824,36.4155879 C83.8654824,38.2355435 82.5450681,39.7064666 80.6152318,39.7064666 C78.6853956,39.7064666 77.3649813,38.2355435 77.3649813,36.4155879 Z M88.5176152,36.4155879 C88.5176152,39.9059138 91.3361919,42.6981745 95.0689015,42.6981745 C98.8016112,42.6981745 101.620188,39.9059138 101.620188,36.4155879 C101.620188,32.925262 98.8016112,30.1080703 95.0689015,30.1080703 C91.3361919,30.1080703 88.5176152,32.925262 88.5176152,36.4155879 Z M91.8186509,36.4155879 C91.8186509,34.5956322 93.1390652,33.0997783 95.0689015,33.0997783 C96.9987378,33.0997783 98.3191521,34.5956322 98.3191521,36.4155879 C98.3191521,38.2355435 96.9987378,39.7064666 95.0689015,39.7064666 C93.1390652,39.7064666 91.8186509,38.2355435 91.8186509,36.4155879 Z M112.955155,24.997236 L110.542859,24.997236 L110.542859,42.4488655 L113.970858,42.4488655 L113.970858,32.7258148 L118.236812,39.5818121 L120.623715,39.5818121 L124.889668,32.7258148 L124.889668,42.4488655 L128.317667,42.4488655 L128.317667,24.997236 L125.905372,24.997236 L119.430263,35.4432828 L112.955155,24.997236 Z M140.206686,30.3573793 L140.206686,38.2106126 C139.749619,38.7840233 138.733916,39.7064666 137.337324,39.7064666 C136.70251,39.7064666 135.991517,39.5070194 135.483666,38.9585396 C135.102777,38.5347143 134.874244,37.9862345 134.874244,36.889275 L134.874244,30.3573793 L131.573208,30.3573793 L131.573208,36.7646205 C131.573208,38.5596452 132.030274,39.8061902 132.817444,40.7535644 C133.782363,41.9253166 135.305918,42.6981745 137.007221,42.6981745 C138.200672,42.6981745 139.368731,42.324211 140.333649,41.4765605 L140.333649,42.4488655 L143.507722,42.4488655 L143.507722,30.3573793 L140.206686,30.3573793 Z M145.671029,41.0776661 C147.118406,42.1247638 148.921279,42.6981745 150.622582,42.6981745 C153.212626,42.6981745 155.523351,41.2771133 155.523351,38.9585396 C155.523351,34.7701485 149.556094,35.393421 149.556094,33.8227744 C149.556094,33.1995019 150.317871,32.8504693 151.232004,32.8504693 C152.120745,32.8504693 152.9587,33.2244328 153.593514,33.673189 L155.142462,31.3296844 C154.329899,30.7064119 152.577811,30.1080703 150.978078,30.1080703 C148.540391,30.1080703 146.255058,31.5540625 146.255058,33.8726362 C146.255058,37.7618565 152.222315,37.1136531 152.222315,38.9336087 C152.222315,39.5319503 151.536715,39.9557756 150.647975,39.9557756 C149.403738,39.9557756 148.108717,39.5070194 147.270761,38.7590924 L145.671029,41.0776661 Z M161.445113,30.3573793 L158.144077,30.3573793 L158.144077,42.4488655 L161.445113,42.4488655 L161.445113,30.3573793 Z M157.636225,26.0692646 C157.636225,27.2410169 158.601143,28.1385293 159.794595,28.1385293 C160.988046,28.1385293 161.952964,27.2410169 161.952964,26.0692646 C161.952964,24.8975124 160.988046,24 159.794595,24 C158.601143,24 157.636225,24.8975124 157.636225,26.0692646 Z M173.460742,38.110889 C172.927497,38.9086778 171.861009,39.7064666 170.515202,39.7064666 C168.509188,39.7064666 167.112596,38.3103362 167.112596,36.4155879 C167.112596,34.5707013 168.534581,33.0997783 170.439024,33.0997783 C171.632476,33.0997783 172.622787,33.6981199 173.282994,34.5457704 L175.619111,32.5263676 C174.476445,31.0803754 172.572001,30.1080703 170.439024,30.1080703 C166.680922,30.1080703 163.81156,32.9003311 163.81156,36.4155879 C163.81156,39.9059138 166.604744,42.6981745 170.413632,42.6981745 C172.724357,42.6981745 174.552623,41.8754548 176,39.9807065 L173.460742,38.110889 Z" id="logo"></path>
        </g>
    </g>
</svg>