<svg width="16" height="16" viewBox="0 0 16 16" xmlns="http://www.w3.org/2000/svg" xmlns:xlink="http://www.w3.org/1999/xlink"><title>mask-icon</title><defs><path d="M6.033 10.312a.787.787 0 0 1-.026-.033c-.209-.278-.268-.701-.268-1.108 0-.86.57-1.558 1.275-1.558.704 0 1.275.697 1.275 1.558 0 .441-.102.904-.33 1.173-.228.267-.594.383-.935.385a.675.675 0 0 1-.301.072c-.298 0-.557-.198-.69-.489zM0 3.996A3.996 3.996 0 0 1 3.996 0h8.008A3.996 3.996 0 0 1 16 3.996v8.008A3.996 3.996 0 0 1 12.004 16H3.996A3.996 3.996 0 0 1 0 12.004V3.996zm4.835 1.422c-.375.516-.526.937-.718 1.604-.192.666-.152 1.565-.152 1.825s.16 1.414-.166 1.627c-.235.153-.37.153-.814-.002-.445-.155-.736-.451-.884-.569-.228-.18-.39-.47-.878-.143-.487.327-.067 1.036.454 1.505.522.468.893.728 1.628 1.011.735.283 1.84.523 2.75.624.91.1 1.52.111 2.612.095 1.092-.017 1.646-.304 1.646-.304s-.247-.351-.377-.642c-.13-.29-.26-.897-.304-1.295a17.814 17.814 0 0 1-.066-1.418c0-.223.022-.588.06-.884.04-.296.251-.319.252.009.001.328-.037.394-.035 1.036.001.641.105 1.55.347 2.14.243.591.427.877 1.251 1.177.804.293 1.79.132 2.503-.465a2.55 2.55 0 0 0 .055-.047c.717-.636 1.005-1.744 1.002-3.115-.004-1.37-.27-2.274-.583-3.135-.314-.86-.853-1.573-1.273-1.901-.419-.328-1.267-.986-2.876-1.12-1.61-.134-2.748.21-3.526.623-.779.415-1.533 1.247-1.908 1.764z" id="a"/></defs><use fill="#000" xlink:href="#a" fill-rule="evenodd"/></svg>