<?xml version="1.0" encoding="utf-8"?>
<!-- Generator: Adobe Illustrator 18.1.1, SVG Export Plug-In . SVG Version: 6.00 Build 0)  -->
<svg version="1.0" id="icon" xmlns="http://www.w3.org/2000/svg" xmlns:xlink="http://www.w3.org/1999/xlink" x="0px" y="0px"
	 viewBox="0 0 500 500" enable-background="new 0 0 500 500" xml:space="preserve">
<path d="M50.3,105.8c-1.1,0-2-0.9-2-2V50.2c0-1.1,0.9-2,2-2h395.7c1.1,0,2,0.9,2,2v53.6c0,1.1-0.9,2-2,2H50.3z"/>
<path d="M50.3,222.2c-1.1,0-2-0.9-2-2v-53.6c0-1.1,0.9-2,2-2h178.4c1,0,1.8,0.7,2,1.7c0.1,1-0.4,1.9-1.4,2.2L206,182v38.1
	c0,1.1-0.9,2-2,2H50.3z"/>
<path d="M50.3,338.5c-1.1,0-2-0.9-2-2v-53.6c0-1.1,0.9-2,2-2H204c1.1,0,2,0.9,2,2v53.6c0,1.1-0.9,2-2,2H50.3z"/>
<path d="M50.3,454.9c-1.1,0-2-0.9-2-2v-53.6c0-1.1,0.9-2,2-2h70.5c0.7,0,1.3,0.3,1.7,0.9c0.4,0.6,0.4,1.3,0.2,1.9
	c-2.4,5.9-3.6,12.2-3.6,18.9c0,12.3,4.2,23.6,12.1,32.6c0.5,0.6,0.6,1.4,0.3,2.1c-0.3,0.7-1,1.2-1.8,1.2H50.3z"/>
<path d="M256,390.3c-11.2-5.1-23.6-7.3-36-7.3c-20.4,0-50.9,9.6-50.9,36s30.5,36,50.9,36s59.9-9.6,59.9-36V285.3l-24,7.4V390.3z"/>
<path d="M424.6,144L256,196.7v60.7l85.3-26.2l82.5-25.5v136.6c-11.2-5.1-23.6-7.3-36-7.3c-20.4,0-48.9,9.6-48.9,36s28.5,36,48.9,36
	s59.9-9.6,59.9-36V135.6C447.8,135.6,426.3,143.4,424.6,144z"/>
</svg>
