<?xml version="1.0" encoding="UTF-8"?>
<svg width="740px" height="155px" viewBox="0 0 740 155" version="1.1" xmlns="http://www.w3.org/2000/svg" xmlns:xlink="http://www.w3.org/1999/xlink">
    <!-- Generator: Sketch 47 (45396) - http://www.bohemiancoding.com/sketch -->
    <title>Group</title>
    <desc>Created with Sketch.</desc>
    <defs>
        <polygon id="path-1" points="4.99887291e-16 27.4271725 4.99887291e-16 0.0227333333 30.0189254 0.0227333333 30.0189254 27.4271725"></polygon>
        <polygon id="path-3" points="0.107991815 28.1111111 20.1225731 28.1111111 20.1225731 0.69597193 0.107991815 0.69597193"></polygon>
    </defs>
    <g id="Page-1" stroke="none" stroke-width="1" fill="none" fill-rule="evenodd">
        <g id="Artboard" transform="translate(-271.000000, -562.000000)">
            <g id="Group" transform="translate(271.000000, 562.000000)">
                <path d="M32.5125292,55.2066667 C43.6384898,55.2066667 50.3140662,52.5373333 55.011694,47.684 C59.3384564,43.316 61.8108921,36.764 61.8108921,30.0906667 C61.8108921,23.4173333 59.3384564,16.8653333 55.011694,12.4973333 C50.1904444,7.52266667 43.6384898,4.85333333 32.5125292,4.85333333 L0,4.85333333 L0,89.7866667 L16.6889409,89.7866667 L16.6889409,55.2066667 L32.5125292,55.2066667 Z M16.6889409,40.6466667 L16.6889409,19.4133333 L31.7707985,19.4133333 C37.4574006,19.4133333 40.3007016,20.748 42.2786502,22.8106667 C44.1329769,24.752 45.1219512,27.3 45.1219512,30.0906667 C45.1219512,32.8813333 44.1329769,35.308 42.2786502,37.2493333 C40.3007016,39.312 37.4574006,40.6466667 31.7707985,40.6466667 L16.6889409,40.6466667 Z M112.890727,69.16 C109.800182,73.528 104.484445,76.44 98.4269778,76.44 C89.4025875,76.44 82.6033894,69.6453333 82.6033894,60.424 C82.6033894,51.9306667 88.6608568,44.2866667 98.0561124,44.2866667 C104.237202,44.2866667 109.552938,47.1986667 112.890727,51.5666667 L112.890727,69.16 Z M128.961558,30.94 L113.508835,30.94 L113.508835,35.672 C108.811208,31.9106667 102.75374,29.7266667 95.9545421,29.7266667 C79.6364666,29.7266667 66.5325574,43.0733333 66.5325574,60.424 C66.5325574,68.432 69.4994803,75.712 74.1971081,81.0506667 C79.5128448,87.1173333 87.9191261,91 96.8198946,91 C102.877362,91 108.563964,89.18 113.508835,85.0546667 L113.508835,89.7866667 L128.961558,89.7866667 L128.961558,30.94 Z M188.820257,55.5706667 L203.902114,89.7866667 L215.028075,89.7866667 L240.246919,30.94 L224.052465,30.94 L209.341473,65.2773333 L194.383237,30.94 L183.257276,30.94 L168.175419,65.2773333 L153.588048,30.94 L137.393594,30.94 L162.612438,89.7866667 L173.738399,89.7866667 L188.820257,55.5706667 Z M243.732366,60.424 C243.732366,77.4106667 257.454384,91 275.626787,91 C293.799189,91 307.521207,77.4106667 307.521207,60.424 C307.521207,43.4373333 293.799189,29.7266667 275.626787,29.7266667 C257.454384,29.7266667 243.732366,43.4373333 243.732366,60.424 Z M259.803198,60.424 C259.803198,51.5666667 266.231531,44.2866667 275.626787,44.2866667 C285.022042,44.2866667 291.450375,51.5666667 291.450375,60.424 C291.450375,69.2813333 285.022042,76.44 275.626787,76.44 C266.231531,76.44 259.803198,69.2813333 259.803198,60.424 Z M314.098916,60.424 C314.098916,77.4106667 327.820934,91 345.993336,91 C364.165739,91 377.887757,77.4106667 377.887757,60.424 C377.887757,43.4373333 364.165739,29.7266667 345.993336,29.7266667 C327.820934,29.7266667 314.098916,43.4373333 314.098916,60.424 Z M330.169748,60.424 C330.169748,51.5666667 336.598081,44.2866667 345.993336,44.2866667 C355.388592,44.2866667 361.816925,51.5666667 361.816925,60.424 C361.816925,69.2813333 355.388592,76.44 345.993336,76.44 C336.598081,76.44 330.169748,69.2813333 330.169748,60.424 Z M433.071147,4.85333333 L421.327078,4.85333333 L421.327078,89.7866667 L438.016019,89.7866667 L438.016019,42.4666667 L458.784479,75.8333333 L470.404926,75.8333333 L491.173386,42.4666667 L491.173386,89.7866667 L507.862327,89.7866667 L507.862327,4.85333333 L496.118257,4.85333333 L464.594702,55.692 L433.071147,4.85333333 Z M565.743076,30.94 L565.743076,69.16 C563.517884,71.9506667 558.573013,76.44 551.773815,76.44 C548.68327,76.44 545.22186,75.4693333 542.749425,72.8 C540.895098,70.7373333 539.782502,68.068 539.782502,62.7293333 L539.782502,30.94 L523.71167,30.94 L523.71167,62.1226667 C523.71167,70.8586667 525.936862,76.9253333 529.769137,81.536 C534.466765,87.2386667 541.884072,91 550.166732,91 C555.976955,91 561.663558,89.18 566.361185,85.0546667 L566.361185,89.7866667 L581.813908,89.7866667 L581.813908,30.94 L565.743076,30.94 Z M592.345798,83.1133333 C599.392239,88.2093333 608.169386,91 616.452046,91 C629.061467,91 640.31105,84.084 640.31105,72.8 C640.31105,52.416 611.259931,55.4493333 611.259931,47.8053333 C611.259931,44.772 614.968584,43.0733333 619.418968,43.0733333 C623.745731,43.0733333 627.82525,44.8933333 630.915794,47.0773333 L638.456723,35.672 C634.500826,32.6386667 625.970923,29.7266667 618.18275,29.7266667 C606.315059,29.7266667 595.189099,36.764 595.189099,48.048 C595.189099,66.976 624.240218,63.8213333 624.240218,72.6786667 C624.240218,75.5906667 620.90243,77.6533333 616.575667,77.6533333 C610.5182,77.6533333 604.213489,75.4693333 600.13397,71.8293333 L592.345798,83.1133333 Z M669.14068,30.94 L653.069848,30.94 L653.069848,89.7866667 L669.14068,89.7866667 L669.14068,30.94 Z M650.597412,10.0706667 C650.597412,15.7733333 655.29504,20.1413333 661.105264,20.1413333 C666.915488,20.1413333 671.613116,15.7733333 671.613116,10.0706667 C671.613116,4.368 666.915488,0 661.105264,0 C655.29504,0 650.597412,4.368 650.597412,10.0706667 Z M727.637822,68.6746667 C725.041764,72.5573333 719.849649,76.44 713.297695,76.44 C703.531574,76.44 696.732376,69.6453333 696.732376,60.424 C696.732376,51.4453333 703.655195,44.2866667 712.926829,44.2866667 C718.737053,44.2866667 723.558303,47.1986667 726.772469,51.324 L738.145673,41.496 C732.582693,34.4586667 723.311059,29.7266667 712.926829,29.7266667 C694.630805,29.7266667 680.661544,43.316 680.661544,60.424 C680.661544,77.4106667 694.25994,91 712.803207,91 C724.05279,91 732.953558,86.996 740,77.7746667 L727.637822,68.6746667 Z" id="logo" fill="#D0021B" fill-rule="nonzero"></path>
                <g id="Page-1" transform="translate(128.000000, 110.000000)">
                    <g id="Group-3" transform="translate(0.000000, 7.388889)">
                        <mask id="mask-2" fill="white">
                            <use xlink:href="#path-1"></use>
                        </mask>
                        <g id="Clip-2"></g>
                        <path d="M14.6864449,18.4859529 C14.8278803,18.8246249 14.9648958,19.1646963 15.100438,19.5103656 C15.234507,19.1535005 15.3744691,18.8120296 15.5217977,18.4859529 C15.6705995,18.1612757 15.8370807,17.8324 16.0271345,17.5007254 L25.7905964,0.653894709 C25.9644441,0.36000582 26.1456582,0.180873545 26.3342387,0.117897354 C26.521346,0.0535216931 26.7894839,0.0227333333 27.1386525,0.0227333333 L30.0189254,0.0227333333 L30.0189254,27.4271725 L26.5964835,27.4271725 L26.5964835,7.28878624 C26.5964835,7.0214873 26.6023767,6.73459577 26.6156362,6.42811164 C26.6288958,6.12302698 26.6495218,5.8095455 26.6760409,5.49046614 L16.7902963,22.6255878 C16.4543873,23.2007704 15.9858825,23.4876619 15.3803623,23.4876619 L14.8175673,23.4876619 C14.2135203,23.4876619 13.742069,23.2007704 13.4091065,22.6255878 L3.30089579,5.43308783 C3.3406745,5.7661619 3.37308678,6.09223862 3.3907662,6.40991852 C3.41286548,6.72899788 3.42170519,7.0214873 3.42170519,7.28878624 L3.42170519,27.4271725 L-0.000736642668,27.4271725 L-0.000736642668,0.0227333333 L2.87953619,0.0227333333 C3.22723153,0.0227333333 3.49536946,0.0535216931 3.68394998,0.117897354 C3.87105722,0.180873545 4.05227131,0.36000582 4.22759227,0.653894709 L14.1943676,17.520318 C14.3814748,17.8268021 14.5464828,18.1486804 14.6864449,18.4859529" id="Fill-1" fill="#282C36" mask="url(#mask-2)"></path>
                    </g>
                    <path d="M43.1515094,34.615025 C43.8093129,34.615025 44.4102502,34.5535831 44.9573952,34.4306992 C45.5045402,34.3063865 46.0178729,34.130634 46.5004671,33.9020129 C46.9845982,33.6748206 47.4472123,33.3976175 47.8867726,33.0732613 C48.3294068,32.7474762 48.7582086,32.3759668 49.1777889,31.9601621 L49.1777889,27.8778461 C47.4564339,27.8778461 45.9932821,27.9807256 44.7898705,28.1836269 C43.584922,28.3865281 42.6043644,28.6508713 41.8497347,28.9780853 C41.093568,29.3067282 40.5448861,29.6925263 40.1990781,30.1369086 C39.857881,30.5827198 39.6857455,31.0785419 39.6857455,31.6300904 C39.6857455,32.1530612 39.776424,32.6060168 39.957781,32.9846706 C40.140675,33.3647532 40.385046,33.6748206 40.6939677,33.9177306 C41.0013525,34.1592116 41.3656036,34.336393 41.7851838,34.4478458 C42.207838,34.5578697 42.6612306,34.615025 43.1515094,34.615025 L43.1515094,34.615025 Z M52.8541114,36.7426304 L51.1957703,36.7426304 C50.8330562,36.7426304 50.5379667,36.6926195 50.3135758,36.5868822 C50.0907218,36.4840027 49.9416402,36.262526 49.8724786,35.923881 L49.4528983,34.0877675 C48.891921,34.555012 48.344776,34.9765322 47.8145372,35.3466126 C47.2812245,35.7166931 46.7217841,36.0310471 46.1331422,36.2839592 C45.5475741,36.5383003 44.9189721,36.7311993 44.2550209,36.8597987 C43.5895328,36.989827 42.8502723,37.0555556 42.0387763,37.0555556 C41.2119111,37.0555556 40.4388383,36.9469605 39.7180209,36.7326282 C38.9956665,36.5182959 38.3701384,36.1939397 37.8368258,35.7624173 C37.3065869,35.3308949 36.8823959,34.7864909 36.5673264,34.1263473 C36.252257,33.4662038 36.0954907,32.6860342 36.0954907,31.7858385 C36.0954907,31.0013823 36.3260293,30.2469326 36.7886435,29.5224894 C37.2512577,28.7980462 37.9966659,28.1536204 39.0248681,27.5920697 C40.0530703,27.0305191 41.4009528,26.570419 43.0669786,26.2103408 C44.7330043,25.8516914 46.7694288,25.6716522 49.1777889,25.6716522 L49.1777889,24.1198863 C49.1777889,22.5738359 48.8258333,21.4050104 48.1173112,20.6134097 C47.4118631,19.8203802 46.3652177,19.4245799 44.9789122,19.4245799 C44.0690531,19.4245799 43.300591,19.531746 42.6796737,19.7460783 C42.0541456,19.9604106 41.517759,20.2018917 41.0612926,20.4676638 C40.606363,20.7362936 40.2144474,20.9763458 39.8855456,21.1906781 C39.5566439,21.4050104 39.229279,21.5136054 38.9095988,21.5136054 C38.6575432,21.5136054 38.4362262,21.4507346 38.2471845,21.3264219 C38.0581428,21.2049669 37.9075243,21.0506477 37.7968657,20.8677508 L37.123693,19.7546516 C38.2994399,18.7001367 39.5658654,17.9142515 40.9245063,17.3912807 C42.2831473,16.8711676 43.7893329,16.6111111 45.4415263,16.6111111 C46.6311056,16.6111111 47.6885094,16.794008 48.6122008,17.1583729 C49.5374291,17.5241667 50.3135758,18.029991 50.9421778,18.6815612 C51.5738536,19.3331314 52.0503001,20.1190166 52.3715172,21.0435032 C52.6927344,21.9679899 52.8541114,22.9839251 52.8541114,24.0898798 L52.8541114,36.7426304 Z" id="Fill-4" fill="#282C36"></path>
                    <path d="M68.3896795,20.1915015 C68.2185463,20.4778182 67.9532114,20.6224082 67.5968148,20.6224082 C67.3801508,20.6224082 67.1383663,20.550829 66.8667513,20.4062391 C66.5967063,20.2630807 66.2638602,20.1027433 65.8682129,19.9266586 C65.4757056,19.7520054 65.007837,19.5888049 64.4646069,19.4384886 C63.9198068,19.2881723 63.2760949,19.21373 62.5334712,19.21373 C61.8881893,19.21373 61.3104186,19.2881723 60.7954491,19.4384886 C60.2789095,19.5888049 59.8408714,19.7949529 59.4750547,20.0555011 C59.1108079,20.3146177 58.8329128,20.6181134 58.6382292,20.9645566 C58.4466856,21.3095683 58.3493438,21.6846432 58.3493438,22.0897813 C58.3493438,22.5965619 58.5110568,23.0217422 58.8329128,23.3610275 C59.1547687,23.7003128 59.5802466,23.9923558 60.1093464,24.2414513 C60.6384462,24.4876837 61.2381973,24.706716 61.9117397,24.895685 C62.5837121,25.084654 63.2729549,25.2879389 63.981038,25.5026764 C64.6891211,25.717414 65.3799338,25.9550568 66.0503362,26.215605 C66.7238787,26.4775848 67.3236298,26.8025543 67.8527296,27.1962398 C68.3833994,27.5870621 68.8088772,28.065211 69.1291632,28.632118 C69.4525891,29.1990251 69.6127321,29.8818905 69.6127321,30.6778509 C69.6127321,31.5897696 69.4337488,32.4358355 69.0757822,33.2103222 C68.7193856,33.9862405 68.1887158,34.6576531 67.4884828,35.2259918 C66.7882499,35.7928989 65.929444,36.2395529 64.9136352,36.565954 C63.8993965,36.892355 62.7265848,37.0555556 61.3967702,37.0555556 C59.8801221,37.0555556 58.5079168,36.8293654 57.277014,36.3798481 C56.0476813,35.9288993 55.003612,35.3534027 54.1432361,34.6490636 L55.0460028,33.3176909 C55.1590449,33.1487641 55.2956374,33.0170584 55.4526403,32.9268686 C55.6096432,32.8366789 55.818457,32.7894366 56.0759418,32.7894366 C56.3334266,32.7894366 56.6034716,32.881058 56.8907869,33.0643007 C57.1765322,33.2461118 57.5235086,33.4479651 57.9301461,33.6712921 C58.3383536,33.8917559 58.8329128,34.0936092 59.4122535,34.2768519 C59.9900242,34.458663 60.7169476,34.5502844 61.5883137,34.5502844 C62.3325075,34.5502844 62.9840695,34.4615262 63.5414298,34.286873 C64.1003602,34.1107882 64.5650888,33.8731454 64.9371856,33.5725128 C65.3077125,33.2718803 65.5824676,32.9268686 65.7614509,32.5360463 C65.9404342,32.145224 66.0314959,31.7272016 66.0314959,31.2834107 C66.0314959,30.7365458 65.8682129,30.2827339 65.5463569,29.9234064 C65.226071,29.5640789 64.8005931,29.25772 64.2699233,29.0043298 C63.7408235,28.7509395 63.1363624,28.5276124 62.4565398,28.340075 C61.7798573,28.151106 61.0843344,27.9521159 60.3762513,27.7431047 C59.6681682,27.5326619 58.9742154,27.295019 58.2943928,27.0287445 C57.6161403,26.7624699 57.0116791,26.4246162 56.4825793,26.0209097 C55.9534795,25.6186347 55.5280017,25.1175805 55.2061457,24.5249049 C54.8827197,23.9307977 54.7241468,23.2107112 54.7241468,22.3632137 C54.7241468,21.6073376 54.89528,20.8786616 55.2391163,20.182912 C55.5813827,19.4828677 56.0822219,18.8715815 56.7400641,18.3418956 C57.3979063,17.8150729 58.2064712,17.3927557 59.1657589,17.0806705 C60.1234766,16.7671537 61.2177869,16.6111111 62.4471196,16.6111111 C63.875846,16.6111111 65.1616998,16.8172591 66.2984008,17.2281236 C67.4366719,17.6389881 68.41794,18.203032 69.2484854,18.9188238 L68.3896795,20.1915015 Z" id="Fill-6" fill="#282C36"></path>
                    <path d="M80.2523385,37.0555556 C78.6769981,37.0555556 77.4637552,36.6131049 76.615495,35.7310953 C75.7686775,34.8476398 75.3431048,33.5781244 75.3431048,31.9182114 L75.3431048,19.6684 L72.9397009,19.6684 C72.7290785,19.6684 72.5516363,19.6047796 72.408817,19.4789848 C72.2602272,19.35319 72.1909814,19.160883 72.1909814,18.8962801 L72.1909814,17.4937403 L75.4628422,17.0787621 L76.270709,10.8931279 C76.2966762,10.6964831 76.3817907,10.5359863 76.5274953,10.4101915 C76.6731998,10.2843967 76.8564125,10.2222222 77.0785759,10.2222222 L78.8529977,10.2222222 L78.8529977,17.1178018 L84.5715409,17.1178018 L84.5715409,19.6684 L78.8529977,19.6684 L78.8529977,31.6810809 C78.8529977,32.5240507 79.056407,33.148687 79.4646683,33.5578816 C79.8700443,33.9656303 80.398043,34.1695046 81.0400086,34.1695046 C81.4107618,34.1695046 81.7281381,34.1217893 81.9964653,34.0220211 C82.2662351,33.9236987 82.5013821,33.8152549 82.6961357,33.6952437 C82.8952172,33.5781244 83.062561,33.4696806 83.1996098,33.3699123 C83.3381013,33.27159 83.4607239,33.2224288 83.5645925,33.2224288 C83.7492478,33.2224288 83.9122638,33.3337644 84.0579684,33.5578816 L85.0822281,35.2365916 C84.4777706,35.8033912 83.7492478,36.2487337 82.8952172,36.5711733 C82.0397439,36.8936128 81.1597461,37.0555556 80.2523385,37.0555556" id="Fill-8" fill="#282C36"></path>
                    <path d="M97.3501553,34.3316378 C99.35138,34.3316378 100.845706,33.6746845 101.833133,32.3607778 C102.822025,31.0483056 103.315739,29.2151477 103.315739,26.8627384 C103.315739,24.4974196 102.822025,22.6556553 101.833133,21.3360111 C100.845706,20.0163669 99.35138,19.3551104 97.3501553,19.3551104 C96.3363578,19.3551104 95.4544125,19.5258035 94.7072495,19.8657554 C93.9600866,20.2042728 93.3359858,20.6948362 92.8349471,21.3360111 C92.3339084,21.9757517 91.961792,22.763235 91.7127377,23.6970267 C91.4666134,24.6308185 91.3435513,25.6865338 91.3435513,26.8627384 C91.3435513,28.0389431 91.4666134,29.0903552 91.7127377,30.0184094 C91.961792,30.9464635 92.3339084,31.7267749 92.8349471,32.3607778 C93.3359858,32.9947808 93.9600866,33.481041 94.7072495,33.8209929 C95.4544125,34.1609447 96.3363578,34.3316378 97.3501553,34.3316378 M97.3501553,16.6111111 C98.829831,16.6111111 100.168864,16.8520896 101.364325,17.3369154 C102.558321,17.8203068 103.573583,18.5059481 104.405718,19.3952735 C105.240782,20.2831646 105.880998,21.3589615 106.327831,22.618361 C106.774664,23.879195 106.997347,25.2877718 106.997347,26.8426569 C106.997347,28.411886 106.774664,29.8218971 106.327831,31.0769935 C105.880998,32.3306555 105.240782,33.4035837 104.405718,34.2914747 C103.573583,35.1808001 102.558321,35.8635726 101.364325,36.3412264 C100.168864,36.8174458 98.829831,37.0555556 97.3501553,37.0555556 C95.8675496,37.0555556 94.5299815,36.8174458 93.3359858,36.3412264 C92.1405251,35.8635726 91.1237975,35.1808001 90.2828729,34.2914747 C89.4419483,33.4035837 88.7944071,32.3306555 88.3417143,31.0769935 C87.8860914,29.8218971 87.6604775,28.411886 87.6604775,26.8426569 C87.6604775,25.2877718 87.8860914,23.879195 88.3417143,22.618361 C88.7944071,21.3589615 89.4419483,20.2831646 90.2828729,19.3952735 C91.1237975,18.5059481 92.1405251,17.8203068 93.3359858,17.3369154 C94.5299815,16.8520896 95.8675496,16.6111111 97.3501553,16.6111111" id="Fill-10" fill="#282C36"></path>
                    <path d="M119.797638,33.0553396 C120.968974,33.0553396 121.996851,32.8035694 122.87979,32.300029 C123.76125,31.7951052 124.573199,31.0840619 125.314158,30.162749 L125.314158,20.899819 C124.656021,20.068424 123.929852,19.4846492 123.143045,19.1512611 C122.353281,18.8178731 121.482173,18.6504875 120.525286,18.6504875 C118.611512,18.6504875 117.142905,19.2868297 116.117986,20.5595142 C115.094546,21.8335821 114.584305,23.6471576 114.584305,26.0043906 C114.584305,27.2521748 114.696706,28.3201231 114.927424,29.2096189 C115.155184,30.0963481 115.490907,30.8281417 115.936074,31.402233 C116.381241,31.9749411 116.928456,32.3927136 117.574762,32.6583173 C118.221067,32.9239211 118.962026,33.0553396 119.797638,33.0553396 L119.797638,33.0553396 Z M126.769454,35.5121741 C126.257734,35.5121741 125.932363,35.2797708 125.800736,34.8135809 L125.475364,32.488165 C124.601299,33.4841789 123.600044,34.2809901 122.476034,34.8799818 C121.349067,35.4775902 120.060893,35.7777778 118.604118,35.7777778 C117.432782,35.7777778 116.36941,35.5675082 115.412523,35.1442022 C114.455636,34.7222796 113.63925,34.1011543 112.966323,33.2822094 C112.290439,32.4632646 111.774282,31.4423503 111.411937,30.2194665 C111.046634,28.997966 110.864721,27.5924796 110.864721,26.0043906 C110.864721,24.5919875 111.06586,23.2791857 111.471095,22.0632187 C111.874851,20.8472516 112.457561,19.7917535 113.217746,18.8967242 C113.979411,18.001695 114.905239,17.2975685 115.998191,16.7884947 C117.088184,16.2780375 118.329031,16.0221172 119.716295,16.0221172 C120.968974,16.0221172 122.04122,16.22132 122.930075,16.6183423 C123.81893,17.0153645 124.61461,17.574239 125.314158,18.2908157 L125.314158,7.66666667 L128.912467,7.66666667 L128.912467,35.5121741 L126.769454,35.5121741 Z" id="Fill-12" fill="#282C36"></path>
                    <path d="M142.468785,34.3316378 C144.471323,34.3316378 145.965535,33.6746845 146.952888,32.3607778 C147.94024,31.0483056 148.435381,29.2151477 148.435381,26.8627384 C148.435381,24.4974196 147.94024,22.6556553 146.952888,21.3360111 C145.965535,20.0163669 144.471323,19.3551104 142.468785,19.3551104 C141.455064,19.3551104 140.573185,19.5258035 139.827544,19.8657554 C139.080438,20.2042728 138.456384,20.6948362 137.952454,21.3360111 C137.454383,21.9757517 137.08083,22.763235 136.833259,23.6970267 C136.585688,24.6308185 136.462636,25.6865338 136.462636,26.8627384 C136.462636,28.0389431 136.585688,29.0903552 136.833259,30.0184094 C137.08083,30.9464635 137.454383,31.7267749 137.952454,32.3607778 C138.456384,32.9947808 139.080438,33.481041 139.827544,33.8209929 C140.573185,34.1609447 141.455064,34.3316378 142.468785,34.3316378 M142.468785,16.6111111 C143.949813,16.6111111 145.28728,16.8520896 146.48265,17.3369154 C147.676555,17.8203068 148.691741,18.5059481 149.523812,19.3952735 C150.358814,20.2831646 151.000446,21.3589615 151.447245,22.618361 C151.894044,23.879195 152.116711,25.2877718 152.116711,26.8426569 C152.116711,28.411886 151.894044,29.8218971 151.447245,31.0769935 C151.000446,32.3306555 150.358814,33.4035837 149.523812,34.2914747 C148.691741,35.1808001 147.676555,35.8635726 146.48265,36.3412264 C145.28728,36.8174458 143.949813,37.0555556 142.468785,37.0555556 C140.987756,37.0555556 139.650289,36.8174458 138.456384,36.3412264 C137.259549,35.8635726 136.242898,35.1808001 135.402038,34.2914747 C134.561177,33.4035837 133.91515,32.3306555 133.461026,31.0769935 C133.005438,29.8218971 132.779841,28.411886 132.779841,26.8426569 C132.779841,25.2877718 133.005438,23.879195 133.461026,22.618361 C133.91515,21.3589615 134.561177,20.2831646 135.402038,19.3952735 C136.242898,18.5059481 137.259549,17.8203068 138.456384,17.3369154 C139.650289,16.8520896 140.987756,16.6111111 142.468785,16.6111111" id="Fill-14" fill="#282C36"></path>
                    <path d="M155.984085,37.0555556 L155.984085,16.9309645 L158.252586,16.9309645 C158.793079,16.9309645 159.13774,17.1752161 159.280305,17.6651733 L159.579534,19.8503532 C160.521088,18.8835238 161.573873,18.1013369 162.73789,17.5067005 C163.898773,16.9106102 165.246088,16.6111111 166.771999,16.6111111 C167.956383,16.6111111 169.001335,16.792846 169.908422,17.1577696 C170.815509,17.5226932 171.572198,18.0388201 172.180056,18.7076044 C172.784781,19.3763887 173.245375,20.1818376 173.56027,21.1224972 C173.873599,22.0617029 174.03183,23.1012263 174.03183,24.2410673 L174.03183,37.0555556 L170.218617,37.0555556 L170.218617,24.2410673 C170.218617,22.7188562 169.844189,21.5368527 169.095333,20.6950568 C168.346477,19.853261 167.199693,19.43309 165.659682,19.43309 C164.533264,19.43309 163.477346,19.684611 162.502893,20.1876531 C161.52374,20.6906952 160.621353,21.3725644 159.794164,22.2347145 L159.794164,37.0555556 L155.984085,37.0555556 Z" id="Fill-16" fill="#282C36"></path>
                    <polygon id="Fill-18" fill="#282C36" points="208.838196 34.5 205.161524 34.5 205.161524 22.290573 190.601129 22.290573 190.601129 34.5 186.923077 34.5 186.923077 7.66666667 190.601129 7.66666667 190.601129 19.6321792 205.161524 19.6321792 205.161524 7.66666667 208.838196 7.66666667"></polygon>
                    <path d="M223.682174,34.3316378 C225.684712,34.3316378 227.17746,33.6746845 228.166277,32.3607778 C229.153629,31.0483056 229.647305,29.2151477 229.647305,26.8627384 C229.647305,24.4974196 229.153629,22.6556553 228.166277,21.3360111 C227.17746,20.0163669 225.684712,19.3551104 223.682174,19.3551104 C222.668453,19.3551104 221.786575,19.5258035 221.039468,19.8657554 C220.292362,20.2042728 219.668308,20.6948362 219.168773,21.3360111 C218.667772,21.9757517 218.294219,22.763235 218.046648,23.6970267 C217.800543,24.6308185 217.676025,25.6865338 217.676025,26.8627384 C217.676025,28.0389431 217.800543,29.0903552 218.046648,30.0184094 C218.294219,30.9464635 218.667772,31.7267749 219.168773,32.3607778 C219.668308,32.9947808 220.292362,33.481041 221.039468,33.8209929 C221.786575,34.1609447 222.668453,34.3316378 223.682174,34.3316378 M223.682174,16.6111111 C225.163202,16.6111111 226.502134,16.8520896 227.696039,17.3369154 C228.889945,17.8203068 229.90513,18.5059481 230.738667,19.3952735 C231.573668,20.2831646 232.21237,21.3589615 232.659169,22.618361 C233.107433,23.879195 233.331565,25.2877718 233.331565,26.8426569 C233.331565,28.411886 233.107433,29.8218971 232.659169,31.0769935 C232.21237,32.3306555 231.573668,33.4035837 230.738667,34.2914747 C229.90513,35.1808001 228.889945,35.8635726 227.696039,36.3412264 C226.502134,36.8174458 225.163202,37.0555556 223.682174,37.0555556 C222.201145,37.0555556 220.862214,36.8174458 219.668308,36.3412264 C218.472938,35.8635726 217.456288,35.1808001 216.615427,34.2914747 C215.774566,33.4035837 215.127074,32.3306555 214.674415,31.0769935 C214.221757,29.8218971 213.994695,28.411886 213.994695,26.8426569 C213.994695,25.2877718 214.221757,23.879195 214.674415,22.618361 C215.127074,21.3589615 215.774566,20.2831646 216.615427,19.3952735 C217.456288,18.5059481 218.472938,17.8203068 219.668308,17.3369154 C220.862214,16.8520896 222.201145,16.6111111 223.682174,16.6111111" id="Fill-20" fill="#282C36"></path>
                    <path d="M251.445382,20.1915015 C251.274249,20.4778182 251.010484,20.6224082 250.650948,20.6224082 C250.437424,20.6224082 250.194069,20.550829 249.922454,20.4062391 C249.649269,20.2630807 249.317993,20.1027433 248.925486,19.9266586 C248.531409,19.7520054 248.06354,19.5888049 247.52031,19.4384886 C246.97551,19.2881723 246.331798,19.21373 245.587604,19.21373 C244.945462,19.21373 244.366122,19.2881723 243.852722,19.4384886 C243.336182,19.5888049 242.896574,19.7949529 242.532328,20.0555011 C242.166511,20.3146177 241.887046,20.6181134 241.693932,20.9645566 C241.502389,21.3095683 241.405047,21.6846432 241.405047,22.0897813 C241.405047,22.5965619 241.56519,23.0217422 241.887046,23.3610275 C242.210472,23.7003128 242.63595,23.9923558 243.163479,24.2414513 C243.692579,24.4876837 244.2939,24.706716 244.965873,24.895685 C245.639415,25.084654 246.328658,25.2879389 247.036741,25.5026764 C247.744824,25.717414 248.435637,25.9550568 249.109179,26.215605 C249.779582,26.4775848 250.379333,26.8025543 250.910003,27.1962398 C251.439102,27.5870621 251.86458,28.065211 252.186436,28.632118 C252.508292,29.1990251 252.668435,29.8818905 252.668435,30.6778509 C252.668435,31.5897696 252.489452,32.4358355 252.131485,33.2103222 C251.775088,33.9862405 251.245989,34.6576531 250.544186,35.2259918 C249.842383,35.7928989 248.985147,36.2395529 247.970908,36.565954 C246.953529,36.892355 245.782288,37.0555556 244.450903,37.0555556 C242.934255,37.0555556 241.56205,36.8293654 240.331147,36.3798481 C239.101814,35.9288993 238.057745,35.3534027 237.198939,34.6490636 L238.100136,33.3176909 C238.214748,33.1487641 238.34977,33.0170584 238.509913,32.9268686 C238.665346,32.8366789 238.87416,32.7894366 239.131645,32.7894366 C239.387559,32.7894366 239.659174,32.881058 239.94492,33.0643007 C240.230665,33.2461118 240.579211,33.4479651 240.985849,33.6712921 C241.395627,33.8917559 241.887046,34.0936092 242.467956,34.2768519 C243.047297,34.458663 243.772651,34.5502844 244.644017,34.5502844 C245.38821,34.5502844 246.039772,34.4615262 246.598703,34.286873 C247.156063,34.1107882 247.619222,33.8731454 247.991319,33.5725128 C248.363415,33.2718803 248.639741,32.9268686 248.817154,32.5360463 C248.994567,32.145224 249.085629,31.7272016 249.085629,31.2834107 C249.085629,30.7365458 248.925486,30.2827339 248.60206,29.9234064 C248.280204,29.5640789 247.854726,29.25772 247.325626,29.0043298 C246.798096,28.7509395 246.192065,28.5276124 245.513813,28.340075 C244.83556,28.151106 244.141607,27.9521159 243.433524,27.7431047 C242.725441,27.5326619 242.029918,27.295019 241.351666,27.0287445 C240.671843,26.7624699 240.068952,26.4246162 239.538282,26.0209097 C239.007612,25.6186347 238.582135,25.1175805 238.261849,24.5249049 C237.939993,23.9307977 237.77828,23.2107112 237.77828,22.3632137 C237.77828,21.6073376 237.950983,20.8786616 238.293249,20.182912 C238.637086,19.4828677 239.137925,18.8715815 239.795767,18.3418956 C240.455179,17.8150729 241.262174,17.3927557 242.219892,17.0806705 C243.17761,16.7671537 244.27349,16.6111111 245.502823,16.6111111 C246.933119,16.6111111 248.217403,16.8172591 249.354104,17.2281236 C250.492375,17.6389881 251.475213,18.203032 252.302618,18.9188238 L251.445382,20.1915015 Z" id="Fill-22" fill="#282C36"></path>
                    <path d="M262.018555,37.0555556 C260.440683,37.0555556 259.230596,36.6131049 258.382526,35.7310953 C257.535897,34.8476398 257.111862,33.5781244 257.111862,31.9182114 L257.111862,19.6684 L254.707554,19.6684 C254.496979,19.6684 254.319576,19.6047796 254.173904,19.4789848 C254.031117,19.35319 253.95756,19.160883 253.95756,18.8962801 L253.95756,17.4937403 L257.230131,17.0787621 L258.037817,10.8931279 C258.063778,10.6964831 258.148873,10.5359863 258.294545,10.4101915 C258.438775,10.2843967 258.623389,10.2222222 258.845503,10.2222222 L260.619528,10.2222222 L260.619528,17.1178018 L266.336791,17.1178018 L266.336791,19.6684 L260.619528,19.6684 L260.619528,31.6810809 C260.619528,32.5240507 260.822891,33.148687 261.231061,33.5578816 C261.639231,33.9656303 262.164227,34.1695046 262.808934,34.1695046 C263.175277,34.1695046 263.494025,34.1217893 263.763734,34.0220211 C264.033443,33.9236987 264.265653,33.8152549 264.463248,33.6952437 C264.6594,33.5781244 264.826707,33.4696806 264.965167,33.3699123 C265.103628,33.27159 265.22478,33.2224288 265.33151,33.2224288 C265.514682,33.2224288 265.679104,33.3337644 265.823334,33.5578816 L266.848806,35.2365916 C266.244484,35.8033912 265.514682,36.2487337 264.6594,36.5711733 C263.807003,36.8936128 262.92576,37.0555556 262.018555,37.0555556" id="Fill-24" fill="#282C36"></path>
                    <path d="M279.066915,19.1799339 C277.329137,19.1799339 275.959621,19.66616 274.964281,20.6400465 C273.965983,21.6124986 273.347778,22.9621705 273.10375,24.6876276 L284.240316,24.6876276 C284.240316,23.8772508 284.126436,23.1357202 283.897198,22.4630357 C283.667959,21.7903512 283.332235,21.2094617 282.887068,20.7174984 C282.44338,20.2269694 281.900602,19.8497498 281.258733,19.5801023 C280.619823,19.3133234 279.889217,19.1799339 279.066915,19.1799339 M278.985572,16.6111111 C280.213109,16.6111111 281.344513,16.8104782 282.381264,17.2092122 C283.418015,17.6079463 284.315743,18.1830987 285.071492,18.9332351 C285.824282,19.6862401 286.414387,20.6142291 286.83589,21.7172022 C287.26331,22.8216095 287.474801,24.0794865 287.474801,25.490833 C287.474801,26.0387338 287.412685,26.4059133 287.292889,26.5895031 C287.171614,26.7716586 286.942376,26.8620192 286.605173,26.8620192 L272.983954,26.8620192 C273.009096,28.1170276 273.185092,29.2085263 273.507506,30.1365153 C273.831398,31.0645043 274.276565,31.8390237 274.843006,32.4586393 C275.407969,33.0796891 276.082374,33.5429665 276.863265,33.8499057 C277.645635,34.1582792 278.521179,34.3117487 279.491377,34.3117487 C280.395021,34.3117487 281.171475,34.2099138 281.826654,34.0076782 C282.478875,33.8040082 283.04088,33.5845611 283.514147,33.3493366 C283.984456,33.1141122 284.377859,32.8960993 284.694357,32.6938637 C285.010854,32.4916281 285.285941,32.3897931 285.515179,32.3897931 C285.809492,32.3897931 286.04021,32.5016681 286.201417,32.7225496 L287.213025,33.9976381 C286.767858,34.5197216 286.235433,34.9743932 285.615749,35.3587843 C284.994586,35.7446097 284.332012,36.0630232 283.62359,36.309722 C282.918126,36.5592894 282.186041,36.7443135 281.431772,36.8690972 C280.676023,36.9924466 279.92767,37.0555556 279.189669,37.0555556 C277.772825,37.0555556 276.471341,36.8231997 275.276341,36.3599224 C274.0843,35.8952107 273.053465,35.216789 272.186795,34.3203545 C271.315687,33.4253543 270.639803,32.3195127 270.153225,30.9985267 C269.668126,29.6789751 269.427056,28.1643593 269.427056,26.4503765 C269.427056,25.0662816 269.645942,23.7725473 270.083714,22.5706079 C270.520007,21.3672341 271.151523,20.3259358 271.973824,19.4438442 C272.793168,18.5617526 273.798861,17.868988 274.984986,17.3669847 C276.169633,16.8635471 277.503655,16.6111111 278.985572,16.6111111" id="Fill-26" fill="#282C36"></path>
                    <path d="M300.272881,33.0553396 C301.4456,33.0553396 302.473393,32.8035694 303.356259,32.300029 C304.237647,31.7951052 305.048051,31.0840619 305.790427,30.162749 L305.790427,20.899819 C305.130865,20.068424 304.406235,19.4846492 303.618014,19.1512611 C302.829793,18.8178731 301.957278,18.6504875 301.001948,18.6504875 C299.08981,18.6504875 297.621323,19.2868297 296.596488,20.5595142 C295.573132,21.8335821 295.058496,23.6471576 295.058496,26.0043906 C295.058496,27.2521748 295.175325,28.3201231 295.403066,29.2096189 C295.632286,30.0963481 295.969461,30.8281417 296.414591,31.402233 C296.859722,31.9749411 297.405413,32.3927136 298.051665,32.6583173 C298.697918,32.9239211 299.438816,33.0553396 300.272881,33.0553396 L300.272881,33.0553396 Z M307.247083,35.5121741 C306.733926,35.5121741 306.410061,35.2797708 306.276965,34.8135809 L305.9531,32.488165 C305.077627,33.4841789 304.076454,34.2809901 302.951057,34.8799818 C301.825661,35.4775902 300.536114,35.7777778 299.080937,35.7777778 C297.908218,35.7777778 296.843454,35.5675082 295.889604,35.1442022 C294.931316,34.7222796 294.116476,34.1011543 293.443605,33.2822094 C292.769254,32.4632646 292.250182,31.4423503 291.886388,30.2194665 C291.522593,28.997966 291.342175,27.5924796 291.342175,26.0043906 C291.342175,24.5919875 291.543297,23.2791857 291.948499,22.0632187 C292.352222,20.8472516 292.934884,19.7917535 293.696486,18.8967242 C294.458088,18.001695 295.382362,17.2975685 296.475224,16.7884947 C297.565128,16.2780375 298.804394,16.0221172 300.193024,16.0221172 C301.4456,16.0221172 302.517758,16.22132 303.40654,16.6183423 C304.295322,17.0153645 305.089458,17.574239 305.790427,18.2908157 L305.790427,7.66666667 L309.38992,7.66666667 L309.38992,35.5121741 L307.247083,35.5121741 Z" id="Fill-28" fill="#282C36"></path>
                    <path d="M331.406232,18.7453936 C330.234761,18.7453936 329.208062,18.9971514 328.32909,19.500667 C327.445685,20.0041827 326.634667,20.7179576 325.894557,21.6378419 L325.894557,30.900316 C326.540122,31.7316701 327.258073,32.3181828 328.043978,32.6570876 C328.83136,32.9973756 329.710332,33.1689029 330.679418,33.1689029 C332.588044,33.1689029 334.054968,32.5312087 335.078713,31.2585868 C336.10098,29.9859649 336.615068,28.1710954 336.615068,25.8139783 C336.615068,24.5662555 336.49541,23.4969765 336.262002,22.6019913 C336.024163,21.7070061 335.685869,20.9724819 335.241212,20.3984188 C334.796555,19.8257389 334.252922,19.407987 333.60588,19.1423963 C332.960315,18.8768057 332.226114,18.7453936 331.406232,18.7453936 L331.406232,18.7453936 Z M322.281167,35.5121871 L322.281167,7.66666667 L325.894557,7.66666667 L325.894557,19.1230303 C326.742507,18.203146 327.714547,17.4617054 328.812155,16.9014751 C329.908286,16.3412448 331.162484,16.0604381 332.576226,16.0604381 C333.76247,16.0604381 334.83201,16.2679308 335.784846,16.6842994 C336.740636,17.1006681 337.556086,17.7217629 338.229719,18.5462006 C338.901875,19.3720216 339.420395,20.3928857 339.783802,21.6087929 C340.147209,22.8260834 340.328912,24.2273508 340.328912,25.8139783 C340.328912,27.2263119 340.128004,28.5404324 339.721757,29.7563396 C339.318463,30.9708635 338.736421,32.0249265 337.975629,32.9129952 C337.214838,33.801064 336.288593,34.4996227 335.190985,35.0114381 C334.093377,35.5204868 332.858384,35.7777778 331.486005,35.7777778 C330.168284,35.7777778 329.04704,35.5370862 328.125227,35.0570865 C327.203414,34.57847 326.399782,33.9103435 325.712853,33.0540903 L325.53115,34.7942624 C325.42331,35.2728789 325.113084,35.5121871 324.60195,35.5121871 L322.281167,35.5121871 Z" id="Fill-30" fill="#282C36"></path>
                    <g id="Group-34" transform="translate(341.618037, 16.611111)">
                        <mask id="mask-4" fill="white">
                            <use xlink:href="#path-3"></use>
                        </mask>
                        <g id="Clip-33"></g>
                        <path d="M8.74586374,27.2210246 C8.62505434,27.4902994 8.47477923,27.7077906 8.29356514,27.8675801 C8.11087776,28.0288491 7.83242683,28.1117029 7.45673907,28.1117029 L4.80040561,28.1117029 L8.52487094,19.9831532 L0.107991815,0.69597193 L3.20925745,0.69597193 C3.51864737,0.69597193 3.75879288,0.772907602 3.93264055,0.92825848 C4.1079615,1.08212982 4.23613732,1.25523509 4.31716802,1.44313567 L9.7742169,14.3431766 C9.89355301,14.639083 9.99815627,14.9349895 10.0865534,15.2308959 C10.1734772,15.5282819 10.2486148,15.831586 10.3163859,16.1408082 C10.4106762,15.831586 10.5034931,15.5282819 10.5977834,15.2308959 C10.6906004,14.9349895 10.8010968,14.6331649 10.9204329,14.3224632 L16.2154204,1.44313567 C16.2964511,1.22860351 16.4349399,1.04810058 16.6279403,0.907545029 C16.8209407,0.765509942 17.0330937,0.69597193 17.261453,0.69597193 L20.1225731,0.69597193 L8.74586374,27.2210246 Z" id="Fill-32" fill="#282C36" mask="url(#mask-4)"></path>
                    </g>
                    <path d="M404.250205,29.989285 C402.166887,31.9354379 399.136608,33.1659458 395.639665,33.1645117 C391.741211,33.1659458 388.457903,32.451735 386.289738,31.4420874 L386.289738,26.313537 L386.289738,13.5337514 C388.668507,11.9346647 392.526053,10.9493979 395.639665,10.9565687 C399.424484,10.9580029 402.397189,12.3118484 404.406264,14.3641291 C406.410794,16.4293172 407.50624,19.1728622 407.516846,22.3609964 C407.504725,25.4688177 406.333522,28.0273563 404.250205,29.989285 M407.88351,12.7707791 C404.947169,10.3441831 400.836595,8.94444444 396.059359,8.94444444 C383.606425,8.94444444 375.135279,18.0355746 375.135279,18.0355746 L377.521624,21.6195365 C377.521624,21.6195365 378.842826,21.72423 378.144346,19.6131489 C378.747372,18.5346617 379.929181,17.0818593 382.236739,15.4053281 L382.236739,39.2768948 C381.241292,39.5422141 379.926151,40.0413013 380.823113,40.8888889 L387.679121,40.8888889 C388.585174,40.0312622 387.159428,39.5163993 386.289738,39.2768948 L386.289738,33.6449548 C386.289738,33.6449548 390.991216,35.3903255 396.059359,35.3903255 C400.512355,35.3903255 404.563839,34.1383052 407.575936,31.8737691 C410.589549,29.6235746 412.531959,26.2619073 412.519837,22.421231 C412.528928,18.6493944 410.821366,15.1887702 407.88351,12.7707791" id="Fill-35" fill="#0096DB"></path>
                    <path d="M417.773452,8.94444444 L416.291817,8.94444444 C415.63224,8.94444444 415.098143,9.4258899 415.098143,10.0189959 L415.098143,34.7032263 C415.098143,35.2963323 415.63224,35.7777778 416.291817,35.7777778 L417.773452,35.7777778 C418.431421,35.7777778 418.965517,35.2963323 418.965517,34.7032263 L418.965517,10.0189959 C418.965517,9.4258899 418.431421,8.94444444 417.773452,8.94444444" id="Fill-37" fill="#0096DB"></path>
                    <path d="M452.579818,8.94444444 L451.096574,8.94444444 C450.438606,8.94444444 449.904509,9.4258899 449.904509,10.0189959 L449.904509,34.7032263 C449.904509,35.2963323 450.438606,35.7777778 451.096574,35.7777778 L452.579818,35.7777778 C453.237787,35.7777778 453.771883,35.2963323 453.771883,34.7032263 L453.771883,10.0189959 C453.771883,9.4258899 453.237787,8.94444444 452.579818,8.94444444" id="Fill-39" fill="#0096DB"></path>
                    <path d="M484.846362,8.94444444 L483.544176,8.94444444 C482.518533,8.94444444 482.237431,9.07060636 481.775511,9.9522896 C481.316631,10.8296224 471.175682,30.0091332 471.175682,30.0091332 C471.175682,30.0091332 461.033214,10.8296224 460.574334,9.9522896 C460.113934,9.07060636 459.831313,8.94444444 458.807189,8.94444444 L457.505003,8.94444444 C456.546217,8.94444444 456.028077,9.35048278 456.569009,10.3858805 C457.10994,11.4212783 469.598472,34.8206874 469.598472,34.8206874 C469.926677,35.4123433 470.526868,35.7777778 471.175682,35.7777778 C471.822977,35.7777778 472.423168,35.4123433 472.752893,34.8206874 L472.752893,34.8192373 C472.774166,34.7771833 485.241425,11.4212783 485.780837,10.3858805 C486.321768,9.35048278 485.805148,8.94444444 484.846362,8.94444444" id="Fill-41" fill="#0096DB"></path>
                    <path d="M442.459321,34.8801915 C442.951728,35.5225675 443.304454,35.7777778 444.253994,35.7777778 L446.203867,35.7777778 C447.429944,35.7777778 446.999618,35.2050047 446.652535,34.7337356 C445.784828,33.5591882 437.237557,22.3922874 437.237557,22.3922874 C437.237557,22.3922874 446.092405,11.163034 446.960113,9.98703654 C447.307196,9.51866763 447.738933,8.94444444 446.511444,8.94444444 L444.562983,8.94444444 C443.610621,8.94444444 443.257894,9.19820469 442.766899,9.84203068 C442.277314,10.4844066 435.081692,19.5762737 435.081692,19.5762737 C435.081692,19.5762737 427.880426,10.4844066 427.38943,9.84203068 C426.899846,9.19820469 426.547119,8.94444444 425.596168,8.94444444 L423.647707,8.94444444 C422.420218,8.94444444 422.851956,9.51866763 423.199039,9.98703654 C424.065335,11.163034 432.925827,22.3922874 432.925827,22.3922874 C432.925827,22.3922874 424.12036,33.5591882 423.254064,34.7337356 C422.906981,35.2050047 422.475244,35.7777778 423.702732,35.7777778 L425.651194,35.7777778 C426.602145,35.7777778 426.954871,35.5225675 427.445867,34.8801915 C427.936862,34.2363655 435.081692,25.206851 435.081692,25.206851 C435.081692,25.206851 441.969737,34.2363655 442.459321,34.8801915" id="Fill-43" fill="#0096DB"></path>
                    <path d="M417.032668,0 C416.110668,0 415.344569,0.303995493 414.729343,0.911986479 C414.115793,1.52163864 413.809019,2.28245796 413.809019,3.19444444 C413.809019,4.10643092 414.115793,4.86725025 414.729343,5.47524123 C415.344569,6.0848934 416.110668,6.38888889 417.032668,6.38888889 C417.952993,6.38888889 418.720768,6.0848934 419.334318,5.47524123 C419.947867,4.86725025 420.254642,4.10643092 420.254642,3.19444444 C420.254642,2.28245796 419.947867,1.52163864 419.334318,0.911986479 C418.720768,0.303995493 417.952993,0 417.032668,0" id="Fill-45" fill="#0096DB"></path>
                    <path d="M451.837358,0 C450.917034,0 450.149259,0.303995493 449.535709,0.911986479 C448.922159,1.52163864 448.615385,2.28245796 448.615385,3.19444444 C448.615385,4.10643092 448.922159,4.86725025 449.535709,5.47524123 C450.149259,6.0848934 450.917034,6.38888889 451.837358,6.38888889 C452.759359,6.38888889 453.525458,6.0848934 454.140684,5.47524123 C454.754233,4.86725025 455.061008,4.10643092 455.061008,3.19444444 C455.061008,2.28245796 454.754233,1.52163864 454.140684,0.911986479 C453.525458,0.303995493 452.759359,0 451.837358,0" id="Fill-47" fill="#0096DB"></path>
                </g>
            </g>
        </g>
    </g>
</svg>