<?xml version="1.0" encoding="utf-8"?>
<!-- Generator: Adobe Illustrator 19.1.0, SVG Export Plug-In . SVG Version: 6.00 Build 0)  -->
<!DOCTYPE svg PUBLIC "-//W3C//DTD SVG 1.1//EN" "http://www.w3.org/Graphics/SVG/1.1/DTD/svg11.dtd">
<svg version="1.1" id="レイヤー_1" xmlns="http://www.w3.org/2000/svg" xmlns:xlink="http://www.w3.org/1999/xlink" x="0px"
	 y="0px" viewBox="0 0 19 19" enable-background="new 0 0 19 19" xml:space="preserve">
<path fill="#DC2F3A" d="M15,0H4C1.8,0,0,1.8,0,4v11c0,2.2,1.8,4,4,4h11c2.2,0,4-1.8,4-4V4C19,1.8,17.2,0,15,0z M14.5,11.2h-0.7V15
	h-1v-0.8c0-1.7-1.5-3.1-3.3-3.1h0h0h0c0,0,0,0,0,0c-1.1,0-2,0.8-2,1.9v1.9l-1.4,0v-4.1H5.4c-0.3,0-0.8-0.3-0.8-0.6V6.3H4v-1h0.7V4.9
	h1.4V9L8,4.5l0.6,0l1.1,2.3l1.1-2.7h0.7l2.2,3.3v0.8l0.7,0.9h0V11.2z"/>
</svg>
