<?xml version="1.0" encoding="utf-8"?>
<!-- Generator: Adobe Illustrator 18.1.1, SVG Export Plug-In . SVG Version: 6.00 Build 0)  -->
<svg version="1.1" id="レイヤー_1" xmlns="http://www.w3.org/2000/svg" xmlns:xlink="http://www.w3.org/1999/xlink" x="0px"
	 y="0px" viewBox="0 0 16 16" enable-background="new 0 0 16 16" xml:space="preserve">
<path fill="#FFFFFF" d="M12.3,0.6H3.7C2,0.6,0.6,2,0.6,3.7v8.6c0,1.7,1.4,3.1,3.1,3.1h8.6c1.7,0,3.1-1.4,3.1-3.1V3.7
	C15.4,2,14,0.6,12.3,0.6z"/>
<path fill="#DC2F3A" d="M12.6,0H3.4C1.5,0,0,1.5,0,3.4v9.3C0,14.5,1.5,16,3.4,16h9.3c1.9,0,3.4-1.5,3.4-3.4V3.4
	C16,1.5,14.5,0,12.6,0z M12.2,9.4h-0.6v3.2h-0.8V12c0-1.4-1.3-2.6-2.8-2.6l0,0l0,0l0,0l0,0c-0.9,0-1.7,0.7-1.7,1.6v1.6H5.1V9.1H4.5
	c-0.3,0-0.7-0.3-0.7-0.5V5.3H3.4V4.5H4V4.1h1.2v3.5l1.6-3.8h0.5l0.9,1.9l0.9-2.3h0.6l1.9,2.8v0.7l0.6,0.8l0,0L12.2,9.4L12.2,9.4z"/>
</svg>
