<?xml version="1.0" encoding="utf-8"?>
<!-- Generator: Adobe Illustrator 18.1.1, SVG Export Plug-In . SVG Version: 6.00 Build 0)  -->
<svg version="1.1" id="レイヤー_1" xmlns="http://www.w3.org/2000/svg" xmlns:xlink="http://www.w3.org/1999/xlink" x="0px"
	 y="0px" viewBox="0 0 500 500" enable-background="new 0 0 500 500" xml:space="preserve">
<path fill="#313543" d="M394.7,0H105.3C47.4,0,0,47.4,0,105.3v289.5C0,452.6,47.4,500,105.3,500h289.5
	c57.9,0,105.3-47.4,105.3-105.3V105.3C500,47.4,452.6,0,394.7,0z"/>
<g>
	<path fill="none" d="M58.3,331.8c0,0.1,0,0.1,0,0.2c0.1,0,0.2-0.1,0.3-0.1C58.4,331.8,58.4,331.8,58.3,331.8
		C58.3,331.8,58.3,331.8,58.3,331.8z"/>
	<path fill="none" d="M318.6,97.5C318.6,97.5,318.6,97.5,318.6,97.5C318.6,97.5,318.6,97.5,318.6,97.5
		C318.6,97.5,318.6,97.5,318.6,97.5z"/>
	<path fill="none" d="M441.1,252c0,0.1,0,0.2,0,0.3c0.1-0.1,0.1-0.1,0.2-0.2C441.2,252.1,441.1,252,441.1,252z"/>
	<path fill="none" d="M437.6,254.5C437.6,254.5,437.7,254.4,437.6,254.5c0.1-0.1,0-0.2,0-0.2c0,0,0,0,0,0c0,0,0,0.1,0,0.1
		C437.6,254.4,437.6,254.5,437.6,254.5z"/>
	<path fill="none" d="M394.7,0h-88.2c32.1,3.4,62.4,15.8,90.5,36.7c13.3,9.9,20.7,24.2,25.8,39.7c0,0.1-0.1,0.1-0.1,0.2
		c7.4,18,10,36.6,7.6,55.8c-0.6,4.7-0.4,8.5,2.2,12.5c4,6.1,5.8,13.3,9.8,19.5c2.1,3.3,2.8,7.2,2.3,11.1c-0.3,2.5,0.3,4.3,2.3,5.8
		c0,0.1,0,0.1,0,0.2c0.1-0.1,0.2-0.2,0.2-0.3c10.7,13.6,15.5,29.5,18,46.2c2.5,16.4,1.6,32.7-2.4,48.9c-6,27.2-21.1,48.1-44.4,63
		c-3.2,2.1-4.1,3.7-3.4,7.6c2.1,11.4,4.2,22.8,4.1,34.5c0,0.1,0,0.2,0,0.3c1.5,6,1.7,12.1,1,17.9c-1.7,14.9,4.1,28.3,6.9,42.3
		c2.2,11.1,4.5,22.3,4.4,33.7v0c1,5.8,1.3,11.6,0.9,17.5c39.6-15.2,67.9-53.6,67.9-98.4V105.3C500,47.4,452.6,0,394.7,0z"/>
	<path fill="none" d="M318.5,270.7c0.1,0,0.1,0.1,0.2,0.1c0-0.2-0.1-0.3-0.1-0.5C318.5,270.5,318.5,270.6,318.5,270.7z"/>
	<path fill="none" d="M313.1,247c0.1,0.1,0.3,0.1,0.4,0.2c0-0.1,0.1-0.2,0.1-0.2C313.4,247,313.3,247,313.1,247z"/>
	<path fill="none" d="M107,165.3c0-0.1,0-0.2-0.1-0.3c0,0.1-0.1,0.1-0.1,0.2C106.8,165.3,106.9,165.3,107,165.3z"/>
	<path fill="none" d="M458.1,268.9C458.1,268.9,458.1,268.9,458.1,268.9c0-0.1-0.1-0.1-0.1-0.1c0,0,0,0.1,0,0.1
		C458,268.9,458.1,268.9,458.1,268.9z"/>
	<path fill="none" d="M48,439.1c18.1-4.9,36.6-5.1,55.1-4.6c8.3,0.2,16.7,0,25.2,0c-6-7.2-13-14.5-17.4-23.6
		c-5.9-8.6-8.9-18.4-11.6-28.3c-0.9-3.4-2-5.5-6-3.6c-1.4,0.7-3.2,0.6-4.8,1c-28.8,7.7-44.5-14.1-52.3-33.5
		c-1.5-3.7-1.3-8.1,1.8-11.5c0.1-0.1,0.2-0.1,0.2-0.2c1.4-3.2,4.2-5,7.1-6.1c22.6-8.8,32.3-27.5,38.5-49.1
		c3.8-13.5,5.1-27.4,7.2-41.2c0,0,0,0,0,0c0.7-5-1.6-8.8-4.1-13c-19.7-32.3-19.7-65.6-5.8-99.7c0,0.1,0,0.1,0,0.2
		c0-0.1,0-0.1,0.1-0.2c10.8-26.9,29.9-45.5,56.7-56.1c13.4-5.3,27.4-7.8,41.8-6.4c3.3,0.3,4.4-0.8,5.1-3.9
		c1.4-6.1,3.5-11.9,7.6-16.8c0,0,0-0.1,0-0.1C205,21.9,223.9,9.1,246.6,3.9c8.1-1.8,16.1-3.1,24-3.9H105.3C47.4,0,0,47.4,0,105.3
		v289.5c0,25.1,9,48.3,23.8,66.4c0.1-0.5,0.3-1.1,0.5-1.6C27.7,447.6,36.9,442.2,48,439.1z"/>
	<path fill="#2B0D18" d="M458.1,268.9c0,0-0.1,0-0.1,0c0,0,0,0.1,0,0.1c-2.6,7.7-4.1,15.8-7.4,23.3c0,0,0,0-0.1,0
		c-11.3,25.2-30.1,42.3-56.2,51.2c-2.5,0.9-4.7,1.7-6.5-1.8c-2.1-4.1-2.2-5.7,2.9-7.4c24.8-8.3,39.7-26.4,47.7-50.7
		c0.8-2,0.9-4.3,2.4-6c0,0,0,0,0,0c0.2-6.7,2-13.2,1.3-19.9c-0.1-2,0.6-4-0.9-5.6c-0.1,0.1-0.1,0.1-0.2,0.2c-0.2,3.1,0.8,6.5-1.3,10
		c-2.3-2.6-0.1-5.8-2.1-7.9c0,0-0.1,0.1-0.1,0.1c1.4,21-4.5,39.7-18.3,55.7c-9,10.5-20.8,16.7-34.2,19.9c-1.6,0.4-1.7,0.3-5.3-1.6
		c31.7-8.8,48.3-29.8,51.1-61.9c-1.3,0-2.5,0.2-3.3-1.2c0,0,0,0,0,0c-1.8,8.2-2.8,16.4-6.1,24.3c-7.1,17.1-27.3,32.1-44,31.9
		c-2.5,0-4.6-0.5-6.7-2.2c-9.1-8-20.1-12.1-32-13.5c-4.3-0.5-6.5-2.6-8.4-5.9c-5.4-9.2-7.7-19.1-6.9-29.7c0-0.1-0.1-0.2-0.1-0.2
		c0,0.1,0,0.2,0,0.3c-1.5-1.2-3.4,6.6-4.8,0.5c-0.1,0-0.1-0.1-0.2-0.1c-2.2,9.1-0.4,17.6,7,34.3c-3.4,1.6-4.1-1.3-5.3-3.2
		c-6.7-11.3-7.3-23.7-6.7-36.4c0,0-0.1,0.1-0.1,0.1c-2.3,2.7,0.2,6.3-2.1,9.5c-2-2.8-1.3-5.9-2.5-8.4c-3.1,10.4-0.9,20.4,2.4,30.2
		c2.9,8.7,3.3,8.5-5.5,10.6c-3.5,0.9-7.1,1.8-10.4,3.2c-3.5,1.5-5.9,0.4-7.7-2.4c-8.4-13.2-13.4-27.6-14.2-43.4
		c-0.8-13.1,0.9-25.9,3.6-38.6c-1.2,0-2.3,0-3.5,0c-0.1-0.1-0.1-0.1-0.1-0.2c0,0.1,0,0.2-0.1,0.3c-7.9,24.7-7.7,57.9,12.7,87.7
		c-9.7,4.9-18.3,11.3-25.9,19.8c-3.7-6.5-4.8-13.4-5.3-20.3c-1.4-19,2.2-37.7,4.2-56.5c2-18.4,3.9-36.8,3.2-55.4c0,0,0,0,0-0.1
		c-2.6-1.7-3.8-0.6-3.9,2.4c-0.2,3.3,0.7,6.8-0.6,10.1c0-0.3-0.1-0.5-0.1-0.8c0,0.2-0.1,0.5-0.1,0.7c0.1,21.1-5.7,41.5-8.3,62.2
		c-2,16-3.7,32,0.6,47.9c0.2,0.6,0.1,1.3,0.5,1.8c6.6,9.2,3.9,17.3-2,25.9c-4.7,6.9-7.5,15-8.2,23.6c0,0.3,0,0.5,0,0.8
		c0.1-0.2,0.2-0.5,0.2-0.7c1.7,4.5,3.7,2.4,5.6,0.4c0-0.1,0.1-0.3,0.1-0.4c5.5-27.7,28.6-56,62.8-62.5c13.3-2.5,26.7-3.1,39.8,0.6
		c23.4,6.6,35.9,23.3,40.8,46.2c2.4,11.4,3.4,22.9-0.3,34.3c-1.6,4.9,3.8,6.1,5.3,9.4c0.2,0.1,0.5,0.2,0.7,0.3
		c3.8,0.3,3.9-1.8,1.6-4c-3-2.8-3-5.5-2.2-9.1c2.8-12.8,1.3-25.5-2.5-37.9c-0.9-3.1-0.5-4.4,2.5-5.1c2-0.5,3.9-1.1,5.8-1.8
		c7.7-2.8,7.7-2.8,8.8,5c1.4,10.3,2.6,20.6,4,30.8c0,0,0,0.1,0,0.1c0.1,0.1,0.2,0.2,0.3,0.4c1.3,2.2,0,6.8,3.9,6.2
		c3.1-0.5,0.8-4.5,1.7-6.8c0,0.1,0,0.1,0,0.2c0-0.1,0-0.2,0-0.3c0.1-11.7-2-23.1-4.1-34.5c-0.7-3.9,0.2-5.5,3.4-7.6
		c23.3-14.9,38.4-35.8,44.4-63C460.1,274.5,459.6,271.4,458.1,268.9z"/>
	<path fill="#13060B" d="M415.1,79.3L415.1,79.3c4.2,14.4,8.2,28.8,7.4,44.1c-0.1,2.6,1.3,6.3-1.2,7.4c-2.6,1.1-3.8-2.8-5.8-4.3
		c-0.6-0.4-1-1.2-1.4-1.9c0,0,0-0.1,0-0.1c0,0-0.1,0.1-0.1,0.1c-8.9-6.3-11.6-6.1-18.4,1.4c-1.2,1.3-2,1.7-3.5,1
		c-8.6-3.9-18.6-4.9-24.3-14.5c-2.6-4.4-7.8-7.9-14.2-5.1c-5.5,2.4-7.2,6.8-6.9,12.3c1.3,1.1,2.5,2.5,1.7,4
		c-0.9,1.6-2.9,0.9-4.4,0.5c-4.6-1.1-8.3-3.2-10.8-7.8c-3.8-7-8.4-13.7-14.6-18.9c0,0,0,0,0,0c0,0,0,0,0,0.1c-0.5,1.7,2.2,3.4-0.1,5
		c0,0-0.1,0-0.1,0c3.5,5,7.6,9.6,10.5,14.9c4.3,8,10.8,11.1,19.5,10.9c6.2-0.1,9.6,4.1,8.3,10.2c-0.8,3.8,1.5,6.6,2.7,9.8
		c-7.2,2-14.2,3.8-21.2,5.6c0-0.1-0.1-0.1-0.1-0.2c0,0.1-0.1,0.2-0.1,0.3c-23.2,9.5-42,24.4-54.4,46.5c-4.6,8-8.4,16.3-10.2,25.4
		c0,0.1,0.1,0.1,0.1,0.2c1.2,0,2.3,0,3.5,0c2.9-6.4,4.1-13.7,8.5-19.4c0-0.1-0.1-0.1-0.1-0.2c9.1-18.4,23-31.9,41.6-40.5
		c0,0.1,0,0.1,0,0.2c0-0.1,0.1-0.1,0.1-0.2c9.8-6.5,21.1-8.7,32.3-10.9c3.3-0.7,5.3,1,6.4,4.1c2.4,6.6,4.4,13.4,5.5,20.4
		c1.7,0,2.9-0.9,3.6-2.4c0,0,0,0,0,0c0,0,0-0.1,0-0.1c-0.1-11.9-4.4-22.6-10.4-32.6c-2.9-4.9-1.1-5.2,3.2-5.4
		c22.2-1.1,42,4.8,59.3,18.9c6.5,5.3,10.4,11.8,10.3,20.4c0,0,0,0,0,0c0,0,0.1-0.1,0.1-0.1c3,1.7,4.5,8.4,9.5,3.1c0-0.1,0-0.1,0-0.2
		c-2-1.5-2.6-3.3-2.3-5.8c0.5-3.9-0.2-7.8-2.3-11.1c-4-6.2-5.8-13.4-9.8-19.5c-2.6-4-2.8-7.8-2.2-12.5c2.4-19.3-0.2-37.9-7.6-55.8
		C421.2,80.1,417.9,79.1,415.1,79.3z M363.7,133c-2,0.7-2.8-1-3.8-2.3c-2.3-3.1-4.6-6.1-6.9-9.2c-2.2-3-2.5-6.1,0.2-8.8
		c2.8-2.8,5.9-2.3,8.7,0c6.4,5,10.1,11.9,13.8,19.1C371.3,132.8,367.4,131.8,363.7,133z M381.2,127.6c4.1,2.5,8.4,2.2,11,6.7
		C387.8,133.2,382.8,134.7,381.2,127.6z M404.4,137.8c-3.5-1.1-5.6-3.5-5.8-6.9c-0.2-2.5,1.3-4.8,3.7-5.8c3.5-1.5,6.1,0.4,8.6,2.8
		c5.7,5.1,9.4,11.7,13.3,19.9C416.9,143.3,411,139.8,404.4,137.8z"/>
	<path fill="#320F1C" d="M43.8,333.3c-1.8,0.5-3.4,2-5.6,1.6c0,0,0,0,0-0.1c-0.1,0.1-0.2,0.1-0.2,0.2c-3.1,3.4-3.3,7.8-1.8,11.5
		c7.8,19.4,23.5,41.2,52.3,33.5c1.6-0.4,3.4-0.3,4.8-1c4-1.9,5.1,0.2,6,3.6c2.7,9.9,5.7,19.7,11.6,28.3c2.1-1.5,2.9-3.7,3.3-6.1
		c0,0,0.1,0,0.1,0c0,0,0,0,0,0c-3.8-7.4-6.8-15.1-8.4-23.2c0,0-0.1,0-0.1-0.1c-2.6-7.4-2.6-7.5,4.5-9.8c6.4-2,12.8-3.9,19.1-6.1
		c3.3-1.1,4.5-0.7,4.5,3.2c-0.2,11.6,0,11.6,11.7,9.5c2.8-0.5,5.7-0.7,8.4-1.4c4-1,6.2,0.3,6.6,4.5c0,0,0.1,0,0.1,0
		c2.2,5.4,2.3,10.5-2,15.1c-1.6,1.6-2.8,3.4-2.9,5.7c0,0-0.1,0.1-0.1,0.1c0.4,3,2.8,2.4,4.9,2.5c0,0,0,0,0,0
		c2.2-3.7,4.3-7.6,7.3-10.8c0.1-0.1,0.1-0.1,0.2-0.2c1.1-5.3,0.4-10.5-1.7-15.4c-1.3-3.3-0.6-4.5,2.7-5.7c3.9-1.3,7.5-3.6,11.3-5.5
		c0,0.1,0,0.1-0.1,0.2c6.1-5.2,10.2-11.4,10-19.9c-0.3-11.7-5.2-20.2-14.6-23.9c-10-4-21.9-1-29.4,7.3c-5.7,6.2-8.2,13.9-10,21.9
		c-0.8,3.8-2.5,5.1-6.2,6.1c-14.7,3.8-28.9,9.1-43.7,12.5c-22.2,5.1-33.1-8.9-41.6-26.8c-1.6-3.4,0.8-5.8,3.6-7.4
		c3.1-1.8,6.4-3.4,9.6-5.1c0.1,0,0.2-0.1,0.2-0.1c0-0.1,0-0.1,0-0.2C53.1,328.3,48.5,332.1,43.8,333.3z M137.6,372.1
		c1.1-10.7,2.4-21.4,8-30.9c2.7-4.6,6.2-8.5,11.2-10.9c14-6.6,27.2,1.8,27.3,17.7c0.4,6-2.5,10.7-7,14.5
		c-10.8,9.2-24.1,11-37.4,12.8C136.8,375.7,137.5,373.5,137.6,372.1z"/>
	<path fill="#0A0306" d="M311.8,96.4c2.2,2.1,4.4,4.1,6.6,6.2c0,0,0,0,0,0c0,0,0.1,0,0.1,0c2.3-1.6-0.4-3.3,0.1-5c0,0,0,0,0-0.1
		c0,0,0,0,0,0c0,0,0,0,0,0c-17.2-18.6-38.4-29.2-63.4-33.1c-19-2.9-36.6,1-53.7,8.9c-2.6,1.2-5.4,3.5-8.4,0.8
		c-3.1-2.8-3.3-6.4-2.8-10.1c0.8-5.9,4-11,5.9-16.5c0,0,0,0-0.1,0c-2-1.1-3.4-2.6-3.7-5c-4.1,4.9-6.2,10.7-7.6,16.8
		c-0.7,3.1-1.8,4.2-5.1,3.9c-14.4-1.4-28.4,1.1-41.8,6.4C111.1,80.2,92,98.8,81.2,125.7c0,0.1,0,0.1-0.1,0.2c0.3,1.9,1.1,2.7,3,1.2
		c1.3-1.1,2.4-2.5,4.4-2.5c0,0,0,0.1,0,0.1c0,0,0-0.1,0.1-0.1c6.2-12.9,14.6-24.1,26.2-32.8c0.9-0.7,2-1,3-1.4
		c7.5-7.7,17.5-10.9,27.1-14.3c12.2-4.4,25.1-4.5,37.9-4c2.6,0.1,4.5,0.9,5.1,3.4c0.6,3.2-2.5,2.6-4,3.4
		c-16.4,8.1-32.1,17.3-44.1,31.7c-0.9,1.1-2.3,1.9-3.5,2.9c-0.4,0.8-0.8,1.6-1.2,2.5c0,0.1,0,0.1-0.1,0.2c0.7,1.6,1.9,2.4,3.7,2.4
		c21.3-22.2,46.5-37.7,76.8-44.1c0.3-0.1,0.7-0.1,1-0.2c-0.3,0-0.6,0-0.9,0C251.9,63.2,284.2,69.7,311.8,96.4z"/>
	<path fill="#020102" d="M192.4,42.4c0,0,0,0.1,0,0.1c0.2,2.4,1.7,3.9,3.7,5c0,0,0,0,0.1,0c0,0,0-0.1,0-0.1
		c12.7-19.7,31-31.7,53.3-37.8c8.9-2.3,18.1-4.4,27.5-3.6c28.8-1.6,56,4.6,81.9,17.1c26.4,11.1,46.4,28.6,56.2,56.2
		c2.8-0.2,6.1,0.8,7.6-2.7c0-0.1,0.1-0.1,0.1-0.2c-5.1-15.5-12.5-29.8-25.8-39.7C368.9,15.8,338.7,3.4,306.5,0h-36
		c-7.9,0.8-15.9,2.1-24,3.9C223.9,9.1,205,21.9,192.4,42.4z"/>
	<path fill="#3B1121" d="M49.2,447.9C49.2,447.9,49.2,447.9,49.2,447.9c19.4-5.4,39.3-5,59.1-4.4c10.5,0.3,21.1,0.6,31.6,0.9
		c0.4,0.1,0.8,0.2,1.2,0.3c-0.4-0.1-0.7-0.2-1.1-0.4c5.5,0.3,8.5-2.2,8.9-7.8c0.1-1.6,1-3.1,1.7-4.6c0-0.1,0-0.2,0.1-0.2
		c1.6-9.5,6.8-17.7,9.8-26.7c0-0.1,0.1-0.1,0.1-0.2c0,0,0,0,0,0c-2.1-0.1-4.5,0.6-4.9-2.5c-3.4,5-5.5,10.6-7.6,16.3
		c-2.1,5.7-3.9,11.5-5.9,17.7c-12.2-8.2-20.6-19.4-27.9-31.5c0,0-0.1,0-0.1,0c-0.4,2.4-1.2,4.6-3.3,6.1c4.4,9.1,11.4,16.4,17.4,23.6
		c-8.5,0-16.9,0.2-25.2,0c-18.5-0.5-37-0.3-55.1,4.6c-11.1,3.1-20.3,8.5-23.7,20.5c-0.2,0.5-0.3,1.1-0.5,1.6
		c2.2,2.7,4.6,5.3,7.1,7.8c0.5-2.1,0.9-4.2,1.5-6.3C34.6,454.1,41.2,450.2,49.2,447.9z"/>
	<path fill="#1E0911" d="M437.4,178.4c0,0-0.1,0.1-0.1,0.1c0.2,15-4.2,28.8-12.2,41.4c0,0.1,0,0.1,0,0.2c-3,5.5-6,11-8.8,16.5
		c-1.2,2.3-1.7,4.8,2.3,3.7c3.6-0.9,3.5,2.1,4.4,3.8c3.5,6.6,2.8,14.2,4.6,21.2c0,0,0,0.1,0,0.1c0,0,0,0,0,0c0.8,1.4,2,1.2,3.3,1.2
		c0,0,0,0,0,0c0.9-9.6-1.1-18.8-5.8-27c-2.9-5.1-1.7-8.5,2.1-12.3c6,8.2,8.9,17.2,10.4,27c0,0,0,0,0,0c0,0,0.1,0.1,0.1,0.1
		c2,2.1-0.2,5.3,2.1,7.9c2.1-3.5,1-6.8,1.3-10c0-0.1,0-0.2,0-0.3c0,0-0.1-0.1-0.1-0.1c-0.5-9.1-3.8-17.4-8.7-25
		c-2.1-3.3-2.4-5.9-0.6-9.4c4.3-8.6,7.6-17.8,10.4-28.3c7.3,9.7,10.6,20,13.4,30.4c4.4,16.1,4.7,32.6,2.5,49.2c0,0,0,0.1,0.1,0.1
		c0,0,0,0,0,0c1.5,2.5,2,5.6,4.6,7.4c4-16.2,4.9-32.5,2.4-48.9c-2.5-16.7-7.3-32.6-18-46.2c-0.1,0.1-0.2,0.2-0.2,0.3
		C441.9,186.8,440.4,180.1,437.4,178.4z"/>
	<path fill="#18080E" d="M107,165.3c-0.1,0-0.1-0.1-0.2-0.1c-4.9,8.4-6.4,18.1-8.3,27.4c-1.8,8.9-3.9,17.8-3.8,26.9
		c0,1,0,2.3-1.3,2.4c-1.7,0.1-2.1-1.6-2.8-2.8c-5.9-10.7-10.5-22-11.6-34.3c-2-20.9,0.7-41,9.5-60.1c0,0,0-0.1,0-0.1
		c-2,0-3.1,1.4-4.4,2.5c-1.8,1.4-2.6,0.6-3-1.2c0-0.1,0-0.1,0-0.2c-13.9,34.1-13.9,67.4,5.8,99.7c2.5,4.2,4.8,8,4.1,13
		c2.9-0.2,6.2,0.9,8.2-2.3c0.1-22.2,5.1-43.6,11-64.9c0,0,0-0.1,0-0.1C108.2,169.6,107.3,167.5,107,165.3z"/>
	<path fill="#270C16" d="M91,238.4C91,238.4,91,238.4,91,238.4c-2.1,13.8-3.4,27.7-7.2,41.2c-6.2,21.6-15.9,40.3-38.5,49.1
		c-2.9,1.1-5.7,3-7.1,6.1c0,0,0,0,0,0.1c2.2,0.4,3.8-1.1,5.6-1.6c4.7-1.2,9.3-5,14.5-1.5c0,0,0,0,0,0c0.1,0,0.1,0,0.2,0.1
		c1.8-0.9,3.6-1.8,5.4-2.8c0.2-0.1,0.4-0.2,0.5-0.3c-0.1,0-0.3,0.1-0.4,0.1c15.7-12.9,23.8-30.2,28.8-49.3c0.5-1.9,0.3-4,1.8-5.6
		c1.8-12.6,4.5-25,4.6-37.9c0,0,0,0,0,0C97.2,239.3,94,238.2,91,238.4z"/>
	<path fill="#3C1322" d="M426.9,441.9c-2.8-14-8.6-27.4-6.9-42.3c0.7-5.8,0.5-12-1-17.9c0-0.1,0-0.1,0-0.2c-0.9,2.3,1.4,6.3-1.7,6.8
		c-3.9,0.6-2.6-4-3.9-6.2c-0.1-0.1-0.2-0.3-0.3-0.4c0.4,11.2,0.4,22.2,0.6,33.4c0.1,7.7,3.7,15.3,5.6,22.9c0.5,2,0.6,4,1,6
		c3.3,11.2,3.9,22.8,5.1,34.3c1.3,5.6,1.5,11.2,0.7,16.9c1.8-0.5,3.5-1.1,5.2-1.8c0-5.9,0-11.9,0-17.8
		C431.4,464.2,429.1,453,426.9,441.9z"/>
	<path fill="#52182D" d="M431.3,475.6L431.3,475.6c0,5.9,0,11.9,0,17.8c0.3-0.1,0.6-0.2,0.9-0.3
		C432.6,487.2,432.3,481.4,431.3,475.6z"/>
	<path fill="#FEFEFE" d="M420.3,444c-5.4-11.3-10.2-22.8-18.1-32.7c-2.3-2.9-5.1-5.1-7.6-7.7c0.2,0,0.3,0,0.5,0.1
		c-0.2-0.1-0.5-0.2-0.7-0.3c-1.5-3.3-6.9-4.5-5.3-9.4c3.7-11.4,2.7-22.9,0.3-34.3c-4.9-22.9-17.4-39.6-40.8-46.2
		c-13.1-3.7-26.5-3.1-39.8-0.6c-34.2,6.5-57.3,34.8-62.8,62.5c0,0.1-0.1,0.3-0.1,0.4c0.1-0.1,0.2-0.2,0.3-0.3
		c-3.2,16.4-3.3,32.6,2.2,48.6c8.8,25.6,28.2,39.3,52.8,46.9c15.2,4.7,30.8,7,46.7,7.5c3.4,0,6.8,0,10.3,0.1c1.5,0,2.9,0.8,2.9,2.5
		s-1.5,2.2-3,2.2c-3.1-0.2-6.1-0.3-9.1-0.3c-25.4-1.8-50.5-5.4-73.1-18.3c-25.3-14.3-36.7-36.9-38-65.3c-0.4-7.9-0.5-15.7,2.2-23.3
		c0-0.3,0-0.5,0-0.8c0.7-8.6,3.5-16.7,8.2-23.6c5.9-8.6,8.6-16.7,2-25.9c-0.4-0.5-0.3-1.2-0.5-1.8c-4.3-15.9-2.6-31.9-0.6-47.9
		c2.6-20.7,8.4-41.1,8.3-62.2c0-0.2,0.1-0.5,0.1-0.7c-0.8-5.9,0-11.9-0.1-17.8c0-1.8,0-4,2.5-4c2,0,2.2,2,2.3,3.7
		c0.1,2.2,0.1,4.4,0.1,6.6c-0.1-0.1-0.2-0.1-0.2-0.2c0,0,0,0,0,0.1c0.7,18.6-1.2,37-3.2,55.4c-2,18.8-5.6,37.5-4.2,56.5
		c0.5,6.9,1.6,13.8,5.3,20.3c7.6-8.5,16.2-14.9,25.9-19.8c-20.4-29.8-20.6-63-12.7-87.7c0-0.1,0-0.2,0.1-0.3
		c1.8-9.1,5.7-17.4,10.2-25.4c12.4-22.1,31.2-37,54.4-46.5c0-0.1,0.1-0.2,0.1-0.3c-11.6-27-28.9-49.8-52.9-66.6
		c-18.7-13-40.4-16-62.9-13.1c-1.9,0.3-3.8,0.2-5.8,0.2c-0.3,0.1-0.7,0.1-1,0.2c-30.3,6.4-55.5,21.9-76.8,44.1c0,0,0.1,0,0.1,0
		c-2.4,3.4-3,4.6-4.6,6.8c-10.6,13.9-18,29.4-23.9,45.8c-0.1,0-0.1-0.1-0.1-0.1c0,0,0,0.1,0,0.1c-5.9,21.3-10.9,42.7-11,64.9
		c0,0,0,0,0,0c-0.1,12.9-2.8,25.3-4.6,37.9c0,0,0.1-0.1,0.1-0.1c-0.4,13.8-4.3,26.8-10,39.2c-3.9,8.5-11.6,13-20.3,15.7
		c-0.2,0.1-0.4,0.2-0.5,0.3c-1.8,0.9-3.6,1.8-5.4,2.8c-0.1,0-0.2,0.1-0.3,0.1c-0.1,0-0.2,0.1-0.2,0.1c-3.2,1.7-6.5,3.3-9.6,5.1
		c-2.8,1.6-5.2,4-3.6,7.4c8.5,17.9,19.4,31.9,41.6,26.8c14.8-3.4,29-8.7,43.7-12.5c3.7-1,5.4-2.3,6.2-6.1c1.8-8,4.3-15.7,10-21.9
		c7.5-8.3,19.4-11.3,29.4-7.3c9.4,3.7,14.3,12.2,14.6,23.9c0.2,8.5-3.9,14.7-10,19.9c-0.9,2.1-1.8,4.3-2.8,6.4
		c-1.2,2.4-1,4.4,1.9,5.2c3.6,1,2.9,2.3,0.9,4.5c-4.9,5.5-9.1,9.1-12.2,10.3c0,0,0,0,0,0c-0.1,0.1-0.1,0.1-0.2,0.2
		c-3,3.2-5.1,7.1-7.3,10.8c0,0.1-0.1,0.1-0.1,0.2c-3,9-8.2,17.2-9.8,26.7c0,0.1,0,0.2-0.1,0.2c0.1-0.1,0.1-0.2,0.2-0.3
		c0.3,5,1.7,9.7,5.2,13.6c1.3,0,2.6,0,3.5,1.1c0,0,0,0,0,0c0.1,0,0.1,0,0.2,0c19.2,1.1,38.4,2.1,57.2,6.4c6.1,1.4,6.2-2.8,7.8-6
		c0.2-0.1,0.4-0.2,0.6-0.3c-0.3,0.1-0.5,0.1-0.8,0.2c0.8-3.1,2.8-5.3,5-7.4c1.1-1.1,2.3-1.9,3.7-0.8c1.4,1.1,0.8,2.4-0.1,3.7
		c-1.5,2.2-3,4.4-4.7,6.5c0,0.1,0,0.3,0,0.4c-4.1,8.9-4.1,9.1-14,7.3c-24.8-4.6-49.6-5.9-74.5-4.7c2.7,5.7,8.1,9.3,11.3,14.8
		c6.3,10.7,10.8,22,14.1,33.6h229.5c10.6,0,20.9-1.6,30.6-4.6c0-5.7,0-11.4,0-17.1C424.2,466.8,423.6,455.2,420.3,444z M217.5,306.5
		c-6.4-1.3-9.1-6.4-11.5-11.7c-13.5,2.9-25.2-1.4-36.1-8.8c-3.5-2.4-7.1-4.8-10.6-7.2c-2-1.4-4.7-2.8-2.8-5.7
		c1.7-2.7,4.1-1.4,6.4-0.1c10,6,20.7,10.2,32.2,12.2c8.1,1.4,15.8,0.5,22.5-4.8c2.2-1.8,4.2-2.3,6.4-0.2c0.1,0.1,0.2,0.1,0.2,0.2
		c5.3,1.1,9.7,3.3,12.3,8.5c2.2,4.5,1.7,9.1-1.6,12.5C230.2,306.2,224.1,307.7,217.5,306.5z"/>
	<path fill="#CEC1E0" d="M113.3,459.3c4.5-8.1,11.1-12.8,20.7-12.8c8.5,0,17-0.1,25.5-0.2c0,0,0,0,0,0c-0.9-1.1-2.2-1.1-3.5-1.1
		c-4.9-0.4-10.1,0.9-14.9-0.5c-0.4-0.1-0.8-0.1-1.2-0.3c-10.5-0.3-21.1-0.6-31.6-0.9c-19.8-0.6-39.7-1-59,4.5
		c11.2,11.7,13.9,26.9,17.1,41.6c0.2,1.1,0.5,2.1,0.7,3.2c11.8,4.6,24.6,7.2,37.9,7.2c0-9.2,0.9-18.4,3.1-27.7
		C109.1,467.7,111,463.4,113.3,459.3z"/>
	<path fill="#DDA292" d="M139.9,451.6c-17.2,0.9-24.2,8.9-27,29.6c-0.9,6.3-1.1,12.6-0.9,18.8h53.4c-3.3-11.6-7.9-22.9-14.1-33.6
		C148,460.9,142.6,457.3,139.9,451.6z"/>
	<path fill="#C05E57" d="M49.3,448C49.2,447.9,49.2,447.9,49.3,448c-8.1,2.2-14.7,6.1-16.9,14.8c-0.5,2.1-1,4.2-1.5,6.3
		c10.2,10.2,22.5,18.3,36.1,23.7c-0.2-1.1-0.4-2.1-0.7-3.2C63.1,474.8,60.4,459.7,49.3,448z"/>
	<path fill="#421325" d="M112.9,481.2c2.8-20.7,9.8-28.7,27-29.6c24.9-1.2,49.7,0.1,74.5,4.7c9.9,1.8,9.9,1.6,14-7.3
		c0-0.2,0-0.3,0-0.4c-0.1,0.1-0.2,0.2-0.2,0.3c-0.1-2.3-1.2-2.9-2.9-2.5c-0.2,0.1-0.4,0.2-0.6,0.3c-1.6,3.2-1.7,7.4-7.8,6
		c-18.8-4.3-38-5.3-57.2-6.4c-0.1,0-0.1,0-0.2,0c-8.5,0.1-17,0.2-25.5,0.2c-9.6,0-16.2,4.7-20.7,12.8c-2.3,4.1-4.2,8.4-5.2,13
		c-2.1,9.3-3.1,18.5-3.1,27.7c0.1,0,0.2,0,0.3,0h6.7C111.8,493.8,112,487.5,112.9,481.2z"/>
	<path fill="#2A2A3D" d="M418.6,214c-11.7,0-23.5,0.2-35.2-0.1c-4.9-0.2-6.7,3.7-9.6,6.1c0,0.1-0.1,0.1-0.1,0.2
		c-2.1,2.8-3.7,9.3-7,0.6c-0.6-1.5-2.8-2.1-4.9-1.3c-19.6,7.3-31.5,21.5-37,41.3c-0.8,3-1.8,6.1-1.4,9.3c0,0.1,0.1,0.2,0.1,0.2
		c-0.8,10.6,1.5,20.5,6.9,29.7c1.9,3.3,4.1,5.4,8.4,5.9c11.9,1.4,22.9,5.5,32,13.5c2.1,1.7,4.2,2.2,6.7,2.2
		c16.7,0.2,36.9-14.8,44-31.9c3.3-7.9,4.3-16.1,6.1-24.3c0,0,0-0.1,0-0.1c-1.8-7-1.1-14.6-4.6-21.2c-0.9-1.7-0.8-4.7-4.4-3.8
		c-4,1.1-3.5-1.4-2.3-3.7c2.8-5.5,5.8-11,8.8-16.5c0-0.1,0-0.1,0-0.2c0,0.1-0.1,0.1-0.1,0.2C425,215.8,422.8,213.9,418.6,214z"/>
	<path fill="#2F2B34" d="M273.4,264.8c0.8,15.8,5.8,30.2,14.2,43.4c1.8,2.8,4.2,3.9,7.7,2.4c3.3-1.4,6.9-2.3,10.4-3.2
		c8.8-2.1,8.4-1.9,5.5-10.6c-3.3-9.8-5.5-19.8-2.4-30.2l0,0c-0.1-6.9,2.5-13.1,4.7-19.4c-0.1-0.1-0.3-0.1-0.4-0.2
		c-1.9,0.3-3.9,1.9-5.4-0.8c-7.2-13.2-16.3-25.4-22.2-39.4c-4.4,5.8-5.6,13-8.5,19.4C274.3,238.9,272.6,251.7,273.4,264.8z"/>
	<path fill="#45434D" d="M442.1,257.7c0.7,6.7-1.1,13.2-1.3,19.9c0,0,0,0,0,0c0,0,0.1-0.1,0.1-0.1c0.7,9.4,3.9,14.1,9.7,14.7
		c0,0,0,0.1-0.1,0.1c0,0,0,0,0.1,0c3.3-7.5,4.8-15.6,7.4-23.3c0,0,0-0.1,0-0.1c0,0,0-0.1,0-0.1c2.2-16.6,1.9-33.1-2.5-49.2
		c-2.8-10.4-6.1-20.7-13.4-30.4c-2.8,10.5-6.1,19.7-10.4,28.3c-1.8,3.5-1.5,6.1,0.6,9.4c4.9,7.6,8.2,15.9,8.7,25
		c0,0,0.1,0.1,0.1,0.1c0.1,0,0.1,0.1,0.1,0.1C442.7,253.7,442,255.7,442.1,257.7z"/>
	<path fill="#ECDDF2" d="M409.1,350.8c-1.1-7.8-1.1-7.8-8.8-5c-1.9,0.7-3.8,1.3-5.8,1.8c-3,0.7-3.4,2-2.5,5.1
		c3.8,12.4,5.3,25.1,2.5,37.9c-0.8,3.6-0.8,6.3,2.2,9.1c2.3,2.1,2.2,4.3-1.6,4c-0.2,0-0.3,0-0.5-0.1c2.5,2.6,5.3,4.8,7.6,7.7
		c7.9,9.9,12.7,21.4,18.1,32.7c-0.4-2-0.5-4-1-6c-1.9-7.6-5.5-15.2-5.6-22.9c-0.2-11.2-0.2-22.2-0.6-33.4c0,0,0-0.1,0-0.1
		C411.7,371.4,410.5,361.1,409.1,350.8z"/>
	<path fill="#1F0A12" d="M372.5,195.9c0.1,3.3-1.2,5-4.2,5.4c-6.7,0.7-12.7,3.7-19.1,5.4c-16.4,9.4-28.2,22.9-35.6,40.3h0
		c0,0.1-0.1,0.2-0.1,0.2c-2.2,6.3-4.8,12.5-4.7,19.4l0,0c1.2,2.5,0.5,5.6,2.5,8.4c2.3-3.2-0.2-6.8,2.1-9.5c0,0,0.1-0.1,0.1-0.1
		c0,0,0-0.1,0-0.1c4.7-30.2,24.5-52.8,52.1-59.2c2.1-0.5,5.3-2.5,5.9,0.7c0.6,3,0.1,6.3-4.9,7.3c-25.3,4.7-47.2,30.6-48,56
		c0,0.1,0,0.2-0.1,0.3c0,0.2,0.1,0.3,0.1,0.5c1.4,6.1,3.2-1.6,4.8-0.5c0-0.1,0-0.2,0-0.3c-0.4-3.2,0.7-6.3,1.4-9.3
		c5.5-19.8,17.4-34,37-41.3c2.1-0.8,4.3-0.2,4.9,1.3c3.3,8.7,4.9,2.2,7-0.6c0-0.1,0.1-0.1,0.1-0.2c0,0-0.1,0-0.1,0.1
		c1.2-7.4,3.2-14.7,3.2-22.1c0.1-6.9,0.1-13.9-2-20.7c0,0,0,0,0,0c-0.7,1.5-1.9,2.4-3.6,2.4C372.5,185,372.3,190.5,372.5,195.9z"/>
	<path fill="#3A3741" d="M440.9,277.5c0,0-0.1,0.1-0.1,0.1c-1.5,1.7-1.6,3.9-2.4,6c-8,24.3-22.9,42.4-47.7,50.7
		c-5.1,1.7-5,3.3-2.9,7.4c1.8,3.5,4,2.7,6.5,1.8c26.2-8.9,44.9-25.9,56.2-51.2c0,0,0-0.1,0.1-0.1
		C444.8,291.6,441.6,286.9,440.9,277.5z"/>
	<path fill="#3A1220" d="M240.3,375.4c-0.1,0.2-0.2,0.5-0.2,0.7c-2.7,7.6-2.6,15.5-2.2,23.3c1.3,28.4,12.7,51,38,65.3
		c22.6,12.9,47.7,16.5,73.1,18.3c2.6-2.2,0.6-3.3-1.1-4.5c-15.9-0.5-31.5-2.8-46.7-7.5c-24.6-7.6-44-21.3-52.8-46.9
		c-5.5-16-5.4-32.2-2.2-48.6c-0.1,0.1-0.2,0.2-0.3,0.3C244,377.8,242,379.9,240.3,375.4z"/>
	<path fill="#2C81FD" d="M318.6,270.1c0.8-25.4,22.7-51.3,48-56c5-1,5.5-4.3,4.9-7.3c-0.6-3.2-3.8-1.2-5.9-0.7
		c-27.6,6.4-47.4,29-52.1,59.2c0,0,0,0.1,0,0.1c-0.6,12.7,0,25.1,6.7,36.4c1.2,1.9,1.9,4.8,5.3,3.2c-7.4-16.7-9.2-25.2-7-34.3
		c0-0.1,0.1-0.2,0.1-0.4C318.6,270.3,318.6,270.2,318.6,270.1z"/>
	<path fill="#2C81FD" d="M379.8,328.5c3.6,1.9,3.7,2,5.3,1.6c13.4-3.2,25.2-9.4,34.2-19.9c13.8-16,19.7-34.7,18.3-55.7
		c0,0,0-0.1,0-0.1c0,0,0-0.1,0-0.1c-1.5-9.8-4.4-18.8-10.4-27c-3.8,3.8-5,7.2-2.1,12.3c4.7,8.2,6.7,17.4,5.8,27c0,0,0,0,0,0
		C428.1,298.7,411.5,319.7,379.8,328.5z"/>
	<path fill="#DEA99B" d="M258.3,203.9c0.1-3,1.2-4,3.9-2.4c0.1,0.1,0.2,0.1,0.2,0.2c0-2.2,0-4.4-0.1-6.6c-0.1-1.7-0.3-3.7-2.3-3.7
		c-2.5,0-2.5,2.2-2.5,4c0.1,5.9-0.7,11.9,0.1,17.8c0,0.3,0.1,0.5,0.1,0.8C259,210.7,258.1,207.2,258.3,203.9z"/>
	<path fill="#45434E" d="M290.9,30.9c16.5,28.3,33.3,56.3,49.9,84.4c1.4,2.4,2.5,4.8,5.8,4.3c0,0,0.1,0.1,0.1,0.1
		c-0.3-5.5,1.4-9.9,6.9-12.3c6.4-2.8,11.6,0.7,14.2,5.1c5.7,9.6,15.7,10.6,24.3,14.5c1.5,0.7,2.3,0.3,3.5-1
		c6.8-7.5,9.5-7.7,18.4-1.4c0,0,0.1-0.1,0.1-0.1c-0.2-1.2-0.1-2.6-0.8-3.4c-14.4-16.4-22.7-36.7-34.4-54.8
		c-7.5-11.7-13.9-24.2-21.4-36c-2.3-3.6-1.6-5.3,1.4-7.2C333,10.6,305.8,4.4,277,6C280,15.2,286.1,22.7,290.9,30.9z"/>
	<path fill="#393741" d="M193.1,74.1c3,2.7,5.8,0.4,8.4-0.8c17.1-7.9,34.7-11.8,53.7-8.9c25,3.9,46.2,14.5,63.4,33.1c0,0,0,0,0,0
		c0,0,0,0,0,0c6.2,5.2,10.8,11.9,14.6,18.9c2.5,4.6,6.2,6.7,10.8,7.8c1.5,0.4,3.5,1.1,4.4-0.5c0.8-1.5-0.4-2.9-1.7-4
		c0,0-0.1-0.1-0.1-0.1c-3.3,0.5-4.4-1.9-5.8-4.3c-16.6-28.1-33.4-56.1-49.9-84.4C286.1,22.7,280,15.2,277,6
		c-9.4-0.8-18.6,1.3-27.5,3.6c-22.3,6.1-40.6,18.1-53.3,37.8c0,0,0,0.1,0,0.1c-1.9,5.6-5.1,10.7-5.9,16.5
		C189.8,67.7,190,71.3,193.1,74.1z"/>
	<path fill="#23212B" d="M376.9,198c0,7.4-2,14.7-3.2,22.1c0,0,0.1,0,0.1-0.1c3-2.4,4.8-6.3,9.6-6.1c11.7,0.3,23.5,0.1,35.2,0.1
		c4.2-0.1,6.4,1.8,6.4,6.1c0-0.1,0.1-0.1,0.1-0.2c8-12.6,12.4-26.4,12.2-41.4c0,0,0,0,0,0c0.1-8.6-3.8-15.1-10.3-20.4
		c-17.3-14.1-37.1-20-59.3-18.9c-4.3,0.2-6.1,0.5-3.2,5.4c6,10,10.3,20.7,10.4,32.6c0,0,0,0.1,0,0.1C377,184.1,377,191.1,376.9,198z
		"/>
	<path fill="#35323C" d="M307.7,246.2c1.6,2.8,3.6,1.1,5.4,0.8c0.2,0,0.3,0,0.5,0h0c7.4-17.4,19.2-30.9,35.6-40.3
		c-8.4-4-10.2-13.2-15.2-19.8c-2.4-3.2-3.7-7.2-6.2-10.5c-2.6-3.4-2.7-6.6-0.8-10.1c0-0.1,0-0.1,0-0.2
		c-18.6,8.6-32.5,22.1-41.6,40.5c0,0.1,0.1,0.1,0.1,0.2C291.4,220.8,300.5,233,307.7,246.2z"/>
	<path fill="#4A4853" d="M357.5,30.3c7.5,11.8,13.9,24.3,21.4,36c11.7,18.1,20,38.4,34.4,54.8c0.7,0.8,0.6,2.2,0.8,3.4
		c0,0,0,0.1,0,0.1c0.4,0.7,0.8,1.5,1.4,1.9c2,1.5,3.2,5.4,5.8,4.3c2.5-1.1,1.1-4.8,1.2-7.4c0.8-15.3-3.2-29.7-7.4-44.1l0,0
		c-9.8-27.6-29.8-45.1-56.2-56.2C355.9,25,355.2,26.7,357.5,30.3z"/>
	<path fill="#3D3B45" d="M327.8,176.4c2.5,3.3,3.8,7.3,6.2,10.5c5,6.6,6.8,15.8,15.2,19.8c6.4-1.7,12.4-4.7,19.1-5.4
		c3-0.4,4.3-2.1,4.2-5.4c-0.2-5.4,0-10.9-1.2-16.2c-1.1-7-3.1-13.8-5.5-20.4c-1.1-3.1-3.1-4.8-6.4-4.1c-11.2,2.2-22.5,4.4-32.3,10.9
		c0,0.1-0.1,0.1-0.1,0.2C325.1,169.8,325.2,173,327.8,176.4z"/>
	<path fill="#E8D9F0" d="M359.4,148.4c-1.2-3.2-3.5-6-2.7-9.8c1.3-6.1-2.1-10.3-8.3-10.2c-8.7,0.2-15.2-2.9-19.5-10.9
		c-2.9-5.3-7-9.9-10.5-14.9c0,0,0,0,0,0c-2.2-2.1-4.4-4.1-6.6-6.2c-27.6-26.7-59.9-33.2-96.2-22.1c0.3,0,0.6,0,0.9,0
		c2,0,3.9,0.1,5.8-0.2c22.5-2.9,44.2,0.1,62.9,13.1c24,16.8,41.3,39.6,52.9,66.6c0,0.1,0.1,0.1,0.1,0.2
		C345.2,152.2,352.2,150.4,359.4,148.4z"/>
	<path fill="#CBC0DD" d="M361.9,112.7c-2.8-2.3-5.9-2.8-8.7,0c-2.7,2.7-2.4,5.8-0.2,8.8c2.3,3.1,4.6,6.1,6.9,9.2
		c1,1.3,1.8,3,3.8,2.3c3.7-1.2,7.6-0.2,12-1.2C372,124.6,368.3,117.7,361.9,112.7z"/>
	<path fill="#CABFDC" d="M410.9,127.9c-2.5-2.4-5.1-4.3-8.6-2.8c-2.4,1-3.9,3.3-3.7,5.8c0.2,3.4,2.3,5.8,5.8,6.9
		c6.6,2,12.5,5.5,19.8,10C420.3,139.6,416.6,133,410.9,127.9z"/>
	<path fill="#EEEDEE" d="M381.2,127.6c1.6,7.1,6.6,5.6,11,6.7C389.6,129.8,385.3,130.1,381.2,127.6z"/>
	<path fill="#FEFEFE" d="M139.7,375.3c13.3-1.8,26.6-3.6,37.4-12.8c4.5-3.8,7.4-8.5,7-14.5c-0.1-15.9-13.3-24.3-27.3-17.7
		c-5,2.4-8.5,6.3-11.2,10.9c-5.6,9.5-6.9,20.2-8,30.9C137.5,373.5,136.8,375.7,139.7,375.3z"/>
	<path fill="#D4C6E4" d="M158.7,396.5c4.3-4.6,4.2-9.7,2-15.1c0,0-0.1,0-0.1,0c0,0,0,0,0,0c-6.3,3.2-12,7.4-19.2,8.9
		c-13.4,2.9-24.7-1.7-35.5-8.7c1.6,8.2,4.6,15.8,8.4,23.2c0,0,0,0,0,0c7.3,12.1,15.7,23.3,27.9,31.5c2-6.2,3.8-12,5.9-17.7
		c2.1-5.7,4.2-11.3,7.6-16.3c0,0,0.1-0.1,0.1-0.1C155.9,399.9,157.1,398.1,158.7,396.5z"/>
	<path fill="#C05E57" d="M141.4,390.3c7.2-1.5,12.9-5.7,19.2-8.9c0,0,0,0,0,0c-0.4-4.2-2.6-5.4-6.6-4.5c-2.7,0.7-5.6,0.9-8.4,1.4
		c-11.7,2.1-11.9,2.1-11.7-9.5c0-3.9-1.2-4.3-4.5-3.2c-6.3,2.2-12.7,4.1-19.1,6.1c-7.1,2.3-7.1,2.4-4.5,9.8c0,0,0.1,0,0.1,0.1
		C116.7,388.6,128,393.2,141.4,390.3z"/>
	<path fill="#D6C8E4" d="M169.1,372.7c-3.3,1.2-4,2.4-2.7,5.7c2.1,4.9,2.8,10.1,1.7,15.4c0,0,0,0,0,0c3.1-1.2,7.3-4.8,12.2-10.3
		c2-2.2,2.7-3.5-0.9-4.5c-2.9-0.8-3.1-2.8-1.9-5.2c1.1-2.1,2-4.3,2.8-6.4c0-0.1,0-0.1,0.1-0.2C176.6,369.1,173,371.4,169.1,372.7z"
		/>
	<path fill="#201B24" d="M79,184.8c1.1,12.3,5.7,23.6,11.6,34.3c0.7,1.2,1.1,2.9,2.8,2.8c1.3-0.1,1.3-1.4,1.3-2.4
		c-0.1-9.1,2-18,3.8-26.9c1.9-9.3,3.4-18.9,8.3-27.4c0-0.1,0.1-0.1,0.1-0.2c2.1-11,8.1-20.3,13.5-29.7c4-6.9,8-14.1,14.6-19.2
		c0,0,0,0,0,0.1c0-0.1,0-0.1,0.1-0.2c0.4-0.9,0.8-1.7,1.2-2.5c0,0-0.1,0-0.1,0.1c-6.2,2.8-9.4-0.4-12-5.6
		c-2.7-5.7-7.6-10.5-6.4-17.6c0,0,0,0,0,0c-1.1,0.5-2.2,0.8-3,1.4c-11.6,8.7-20,19.9-26.2,32.8c0,0,0,0.1-0.1,0.1
		C79.7,143.8,77,163.9,79,184.8z"/>
	<path fill="#2B2731" d="M124.2,108c2.6,5.2,5.8,8.4,12,5.6c0,0,0.1,0,0.1-0.1c1.2-1.1,2.6-1.9,3.5-2.9c12-14.4,27.7-23.6,44.1-31.7
		c1.5-0.8,4.6-0.2,4-3.4c-0.6-2.5-2.5-3.3-5.1-3.4c-12.8-0.5-25.7-0.4-37.9,4c-9.6,3.4-19.6,6.6-27.1,14.3c0,0,0,0,0,0
		C116.6,97.5,121.5,102.3,124.2,108z"/>
	<path fill="#D3C4E1" d="M140,444.3c0.4,0.1,0.7,0.3,1.1,0.4c4.9,1.4,10,0.2,14.9,0.5c-3.5-3.9-4.9-8.6-5.2-13.6
		c-0.1,0.1-0.1,0.2-0.2,0.3c-0.7,1.5-1.6,3-1.7,4.6C148.5,442.1,145.5,444.6,140,444.3z"/>
	<path fill="#CFC1DF" d="M64,328.9c0.1,0,0.3-0.1,0.4-0.1c8.7-2.7,16.3-7.2,20.3-15.7c5.7-12.4,9.6-25.4,10-39.2
		c0,0-0.1,0.1-0.1,0.1c-1.5,1.6-1.3,3.7-1.8,5.6C87.8,298.7,79.7,316,64,328.9z"/>
	<path fill="#52182D" d="M425.4,478.3c0,5.8,0,11.4,0,17.1c0.2-0.1,0.5-0.1,0.7-0.2C426.9,489.5,426.7,483.9,425.4,478.3z"/>
	<path fill="#280C16" d="M223.9,280.3c0.1,0,0.2,0,0.3,0.1c-0.1-0.1-0.1-0.1-0.2-0.2c-2.2-2.1-4.2-1.6-6.4,0.2
		c-6.7,5.3-14.4,6.2-22.5,4.8c-11.5-2-22.2-6.2-32.2-12.2c-2.3-1.3-4.7-2.6-6.4,0.1c-1.9,2.9,0.8,4.3,2.8,5.7
		c3.5,2.4,7.1,4.8,10.6,7.2c10.9,7.4,22.6,11.7,36.1,8.8c5.1-2.3,9.9-5,14.5-8.2C222.7,285,224.6,283.4,223.9,280.3z"/>
	<path fill="#FEB5B5" d="M236.5,288.9c-2.5-5.2-7-7.4-12.3-8.5c-0.1,0-0.2,0-0.3-0.1c0.7,3.1-1.2,4.7-3.4,6.3
		c-4.6,3.2-9.4,5.9-14.5,8.2c2.4,5.3,5.1,10.4,11.5,11.7c6.6,1.2,12.7-0.3,17.4-5.1C238.2,298,238.7,293.4,236.5,288.9z"/>
	<path fill="#D6A296" d="M349,483c3,0,6,0.1,9.1,0.3c1.5,0,3-0.5,3-2.2s-1.4-2.5-2.9-2.5c-3.5-0.1-6.9-0.1-10.3-0.1
		C349.6,479.7,351.6,480.8,349,483z"/>
	<path fill="#D19D91" d="M228.2,448.9c0.1-0.1,0.2-0.2,0.2-0.3c1.6-2.1,3.1-4.3,4.7-6.5c0.9-1.3,1.5-2.6,0.1-3.7
		c-1.4-1.1-2.6-0.3-3.7,0.8c-2.2,2.1-4.2,4.3-5,7.4c0.3-0.1,0.6-0.2,0.8-0.2C227,446,228.1,446.6,228.2,448.9z"/>
	<path fill="#15070C" d="M135,116.2C135,116.1,135,116.1,135,116.2c-6.6,5-10.6,12.2-14.6,19.1C115,144.7,109,154,106.9,165
		c0,0.1,0,0.2,0.1,0.3c0.3,2.2,1.2,4.2,3.2,5.8c0.1,0,0.1,0.1,0.1,0.1c5.9-16.4,13.3-31.9,23.9-45.8c1.6-2.2,2.2-3.4,4.6-6.8
		c0,0-0.1,0-0.1,0C137,118.6,135.7,117.8,135,116.2z"/>
</g>
</svg>
