<?xml version="1.0" encoding="utf-8"?>
<!-- Generator: Adobe Illustrator 18.1.1, SVG Export Plug-In . SVG Version: 6.00 Build 0)  -->
<svg version="1.1" id="レイヤー_1" xmlns="http://www.w3.org/2000/svg" xmlns:xlink="http://www.w3.org/1999/xlink" x="0px"
	 y="0px" viewBox="0 0 16 16" enable-background="new 0 0 16 16" xml:space="preserve">
<path fill="#FFFFFF" d="M12.4,0.4H3.6c-1.8,0-3.2,1.4-3.2,3.2v8.9c0,1.8,1.4,3.2,3.2,3.2h8.9c1.8,0,3.2-1.4,3.2-3.2V3.6
	C15.6,1.8,14.2,0.4,12.4,0.4z"/>
<path fill="#EA5514" d="M12.6,0H3.4C1.5,0,0,1.5,0,3.4v9.3C0,14.5,1.5,16,3.4,16h9.3c1.9,0,3.4-1.5,3.4-3.4V3.4
	C16,1.5,14.5,0,12.6,0z M2.9,9.6c0,0.2-0.2,0.2-0.3,0.2c-0.2,0-0.3-0.1-0.3-0.3L2,8.7l0.2-0.8c0-0.2,0.2-0.3,0.3-0.3
	c0.2,0,0.3,0.1,0.3,0.2L3,8.6L2.9,9.6z M4,10c0,0.2-0.2,0.3-0.3,0.3c-0.2,0-0.3-0.1-0.3-0.3L3.1,8.8l0.2-1.9c0-0.2,0.2-0.3,0.3-0.3
	C3.8,6.7,4,6.7,4,6.9l0.2,1.9L4,10z M5.1,10c0,0.2-0.2,0.3-0.3,0.3c-0.2,0-0.3-0.2-0.3-0.3L4.4,8.8l0.1-2.5C4.5,6.1,4.6,6,4.8,6
	s0.3,0.2,0.3,0.3l0.2,2.5L5.1,10z M6.3,10c0,0.2-0.2,0.3-0.4,0.3S5.5,10.2,5.5,10L5.4,8.8l0.1-2.5c0-0.3,0.2-0.4,0.4-0.4
	s0.4,0.2,0.4,0.3l0.1,2.5L6.3,10z M7.4,9.9c0,0.2-0.2,0.3-0.4,0.3s-0.4-0.2-0.4-0.3C6.5,8.8,6.5,8.8,6.5,8.8l0.1-2.9
	c0-0.2,0.2-0.3,0.4-0.3s0.4,0.2,0.4,0.3l0.1,2.9L7.4,9.9z M12,10.3c-3.4,0-4,0-4,0l0,0c-0.2,0-0.3-0.2-0.3-0.3V5.5
	c0-0.3,0.2-0.3,0.3-0.3C8.3,5.1,8.6,5,8.9,5c1.3,0,2.4,0.9,2.7,2.2c0.1,0,0.3-0.1,0.4-0.1c0.9,0,1.7,0.8,1.7,1.6
	C13.7,9.5,13,10.3,12,10.3z"/>
</svg>
