<?xml version="1.0" encoding="utf-8"?>
<!-- Generator: Adobe Illustrator 19.1.0, SVG Export Plug-In . SVG Version: 6.00 Build 0)  -->
<!DOCTYPE svg PUBLIC "-//W3C//DTD SVG 1.1//EN" "http://www.w3.org/Graphics/SVG/1.1/DTD/svg11.dtd">
<svg version="1.1" id="レイヤー_1" xmlns="http://www.w3.org/2000/svg" xmlns:xlink="http://www.w3.org/1999/xlink" x="0px"
	 y="0px" viewBox="0 0 19 19" enable-background="new 0 0 19 19" xml:space="preserve">
<path fill="#EA5514" d="M15,0H4C1.8,0,0,1.8,0,4v11c0,2.2,1.8,4,4,4h11c2.2,0,4-1.8,4-4V4C19,1.8,17.2,0,15,0z M3.4,11.4
	c0,0.2-0.2,0.2-0.4,0.2c-0.2,0-0.3-0.1-0.4-0.3l-0.2-1l0.2-1c0-0.2,0.2-0.3,0.4-0.3c0.2,0,0.3,0.1,0.4,0.2l0.2,1L3.4,11.4z
	 M4.7,11.9c0,0.2-0.2,0.3-0.4,0.3c-0.2,0-0.4-0.1-0.4-0.3l-0.2-1.4l0.2-2.3c0-0.2,0.2-0.3,0.4-0.3c0.2,0,0.4,0.1,0.4,0.3l0.2,2.2
	L4.7,11.9z M6.1,11.9c0,0.2-0.2,0.4-0.4,0.4c-0.2,0-0.4-0.2-0.4-0.4l-0.1-1.4l0.1-3c0-0.2,0.2-0.4,0.4-0.4c0.2,0,0.4,0.2,0.4,0.4
	l0.2,3L6.1,11.9z M7.5,11.9c0,0.2-0.2,0.4-0.5,0.4c-0.3,0-0.5-0.2-0.5-0.4l-0.1-1.4l0.1-3C6.5,7.2,6.7,7,7,7c0.3,0,0.5,0.2,0.5,0.4
	l0.1,3L7.5,11.9z M8.8,11.8c0,0.2-0.2,0.4-0.5,0.4c-0.3,0-0.5-0.2-0.5-0.4c-0.1-1.4-0.1-1.4-0.1-1.4L7.8,7c0-0.2,0.2-0.4,0.5-0.4
	c0.3,0,0.5,0.2,0.5,0.4l0.1,3.4L8.8,11.8z M14.3,12.2c-4,0-4.7,0-4.8,0l0,0c-0.2,0-0.4-0.2-0.4-0.4V6.5c0-0.3,0.2-0.4,0.3-0.4
	c0.4-0.1,0.8-0.2,1.2-0.2c1.6,0,2.9,1.1,3.2,2.6c0.1,0,0.3-0.1,0.5-0.1c1.1,0,2,0.9,2,1.9S15.4,12.2,14.3,12.2z"/>
</svg>
