<?xml version="1.0" encoding="utf-8"?>
<!-- Generator: Adobe Illustrator 18.1.1, SVG Export Plug-In . SVG Version: 6.00 Build 0)  -->
<svg version="1.1" id="レイヤー_1" xmlns="http://www.w3.org/2000/svg" xmlns:xlink="http://www.w3.org/1999/xlink" x="0px"
	 y="0px" viewBox="0 0 16 16" enable-background="new 0 0 16 16" xml:space="preserve">
<g>
	<path fill="#FFFFFF" d="M12.7,9.6c-0.1,0.6-0.5,1.4-1.1,1.5c-2,0.2-4.4,0.1-6.5,0C4.4,11,3.9,10.2,3.9,9.6c-0.1-1.3-0.1-1.9,0-3.2
		C4,5.8,4.4,5,5,4.9c2-0.2,4.5-0.1,6.5,0c0.7,0,1.1,0.7,1.1,1.4C12.8,7.5,12.8,8.3,12.7,9.6z"/>
	<path fill="#CC2426" d="M12.6,0H3.4C1.5,0,0,1.5,0,3.4v9.3C0,14.5,1.5,16,3.4,16h9.3c1.9,0,3.4-1.5,3.4-3.4V3.4
		C16,1.5,14.5,0,12.6,0z M12.3,9.4c-0.1,0.5-0.4,1.3-1,1.3c-1.9,0.2-4,0.1-6,0c-0.6-0.1-1-0.8-1-1.3c-0.1-1.2-0.1-1.8,0-2.9
		c0.1-0.5,0.4-1.3,1-1.3c1.9-0.2,4.1-0.1,6,0c0.7,0,1,0.7,1,1.3C12.4,7.6,12.4,8.3,12.3,9.4z"/>
	<polygon fill="#CC2426" points="7.2,9.4 9.9,7.9 7.2,6.5 	"/>
</g>
</svg>
