<?xml version="1.0" encoding="utf-8"?>
<!-- Generator: Adobe Illustrator 19.1.0, SVG Export Plug-In . SVG Version: 6.00 Build 0)  -->
<!DOCTYPE svg PUBLIC "-//W3C//DTD SVG 1.1//EN" "http://www.w3.org/Graphics/SVG/1.1/DTD/svg11.dtd">
<svg version="1.1" id="レイヤー_1" xmlns="http://www.w3.org/2000/svg" xmlns:xlink="http://www.w3.org/1999/xlink" x="0px"
	 y="0px" viewBox="0 0 19 19" enable-background="new 0 0 19 19" xml:space="preserve">
<g>
	<polygon fill="#CC2426" points="8.6,11.2 11.7,9.4 8.6,7.7 	"/>
	<path fill="#CC2426" d="M15,0H4C1.8,0,0,1.8,0,4v11c0,2.2,1.8,4,4,4h11c2.2,0,4-1.8,4-4V4C19,1.8,17.2,0,15,0z M14.6,11.2
		c-0.1,0.6-0.5,1.5-1.2,1.6c-2.2,0.2-4.8,0.1-7.1,0c-0.7-0.1-1.2-0.9-1.2-1.6C5,9.8,5,9.1,5.1,7.7c0.1-0.6,0.5-1.5,1.2-1.6
		c2.2-0.2,4.9-0.1,7.1,0c0.8,0,1.2,0.8,1.2,1.5C14.7,9,14.7,9.8,14.6,11.2z"/>
</g>
</svg>
